<svg xmlns="http://www.w3.org/2000/svg" xmlns:xlink="http://www.w3.org/1999/xlink" width="500" zoomAndPan="magnify" viewBox="0 0 375 374.999991" height="500" preserveAspectRatio="xMidYMid meet" version="1.0"><defs><clipPath id="f095ab1f6e"><path d="M 281 251 L 365.296875 251 L 365.296875 361 L 281 361 Z M 281 251 " clip-rule="nonzero"/></clipPath><clipPath id="12e22183d8"><path d="M 9.796875 196 L 104 196 L 104 302 L 9.796875 302 Z M 9.796875 196 " clip-rule="nonzero"/></clipPath><clipPath id="c27a0e0b45"><path d="M 169 4.851562 L 270 4.851562 L 270 95 L 169 95 Z M 169 4.851562 " clip-rule="nonzero"/></clipPath><clipPath id="3b73e03a9e"><path d="M 185 307 L 257 307 L 257 370.101562 L 185 370.101562 Z M 185 307 " clip-rule="nonzero"/></clipPath></defs><path fill="#f3ac84" d="M 348.035156 252.035156 C 362.679688 307.226562 368.144531 319.960938 361.976562 339.761719 C 353.449219 368.289062 306.398438 357.746094 286.679688 357.746094 L 282.296875 313.707031 C 287.863281 312.617188 294.363281 310.023438 300.984375 307.226562 L 291.449219 277.675781 L 348.03125 252.035156 Z M 348.035156 252.035156 " fill-opacity="1" fill-rule="nonzero"/><g clip-path="url(#f095ab1f6e)"><path fill="#231f20" d="M 321.574219 360.472656 C 314.164062 360.472656 306.738281 359.878906 300.242188 359.363281 C 294.945312 358.941406 290.367188 358.574219 286.6875 358.574219 C 286.257812 358.5625 285.902344 358.253906 285.855469 357.832031 L 281.46875 313.792969 C 281.429688 313.367188 281.714844 312.984375 282.132812 312.902344 C 287.582031 311.832031 294.136719 309.210938 299.964844 306.765625 L 290.664062 277.933594 C 290.53125 277.535156 290.726562 277.101562 291.109375 276.929688 L 347.691406 251.289062 C 347.914062 251.1875 348.167969 251.1875 348.390625 251.292969 C 348.613281 251.394531 348.769531 251.589844 348.832031 251.828125 C 351 259.988281 352.976562 267.265625 354.71875 273.6875 C 364.71875 310.511719 368.089844 322.914062 362.765625 340.011719 C 359.613281 350.570312 351.21875 356.890625 337.113281 359.324219 C 332.167969 360.175781 326.875 360.476562 321.574219 360.476562 Z M 287.429688 356.925781 C 291.039062 356.972656 295.382812 357.316406 300.367188 357.714844 C 311.421875 358.597656 325.183594 359.699219 336.828125 357.6875 C 350.253906 355.375 358.222656 349.433594 361.179688 339.523438 C 366.363281 322.875 363.292969 311.570312 353.121094 274.113281 C 351.445312 267.941406 349.550781 260.976562 347.484375 253.191406 L 292.460938 278.121094 L 301.773438 306.96875 C 301.90625 307.378906 301.699219 307.816406 301.304688 307.984375 C 295.492188 310.4375 288.859375 313.136719 283.1875 314.363281 L 287.429688 356.921875 Z M 287.429688 356.925781 " fill-opacity="1" fill-rule="nonzero"/></g><path fill="#fbf2d9" d="M 291.894531 283.242188 L 288.382812 273.742188 L 289.328125 299.234375 L 291.894531 368.898438 L 120.316406 368.898438 L 122.886719 299.21875 L 123.828125 273.742188 L 120.316406 283.242188 C 97.152344 276.113281 76.285156 267.777344 58.761719 257.6875 C 78.675781 210.0625 91.589844 164.792969 144.601562 154.316406 C 161.058594 151.066406 180.648438 145.65625 206.105469 143.402344 C 231.558594 145.660156 251.15625 151.066406 267.609375 154.316406 C 320.617188 164.792969 333.535156 210.0625 353.449219 257.6875 C 335.921875 267.777344 315.050781 276.113281 291.894531 283.242188 Z M 291.894531 283.242188 " fill-opacity="1" fill-rule="nonzero"/><path fill="#231f20" d="M 291.894531 369.722656 L 120.316406 369.722656 C 120.089844 369.722656 119.875 369.628906 119.722656 369.46875 C 119.570312 369.304688 119.484375 369.085938 119.492188 368.863281 L 122.8125 278.878906 L 121.09375 283.523438 C 120.941406 283.9375 120.496094 284.15625 120.074219 284.027344 C 95.199219 276.367188 75.007812 267.984375 58.347656 258.394531 C 57.988281 258.183594 57.835938 257.742188 58 257.355469 C 59.992188 252.582031 61.941406 247.785156 63.824219 243.140625 C 72.390625 222.003906 80.480469 202.042969 92.453125 186.113281 C 105.914062 168.207031 122.433594 157.839844 144.441406 153.492188 C 148.519531 152.6875 152.789062 151.75 157.304688 150.757812 C 171.152344 147.714844 186.847656 144.265625 206.035156 142.5625 C 206.082031 142.5625 206.132812 142.5625 206.179688 142.5625 C 225.367188 144.265625 241.0625 147.714844 254.90625 150.757812 C 259.425781 151.75 263.691406 152.6875 267.769531 153.492188 C 289.777344 157.839844 306.292969 168.207031 319.75 186.113281 C 331.722656 202.042969 339.8125 222 348.378906 243.132812 C 350.265625 247.777344 352.214844 252.582031 354.207031 257.355469 C 354.367188 257.742188 354.214844 258.183594 353.859375 258.394531 C 337.199219 267.980469 317.011719 276.363281 292.132812 284.027344 C 291.714844 284.15625 291.265625 283.9375 291.113281 283.523438 L 289.394531 278.878906 L 292.714844 368.863281 C 292.726562 369.089844 292.640625 369.308594 292.484375 369.46875 C 292.332031 369.628906 292.113281 369.722656 291.890625 369.722656 Z M 121.175781 368.066406 L 291.039062 368.066406 L 287.558594 273.769531 C 287.546875 273.359375 287.828125 273.007812 288.226562 272.925781 C 288.625 272.847656 289.023438 273.070312 289.164062 273.453125 L 292.402344 282.21875 C 316.503906 274.757812 336.148438 266.609375 352.410156 257.328125 C 350.503906 252.769531 348.652344 248.195312 346.855469 243.761719 C 338.328125 222.734375 330.269531 202.871094 318.433594 187.113281 C 305.234375 169.554688 289.035156 159.386719 267.453125 155.121094 C 263.355469 154.3125 259.085938 153.375 254.554688 152.378906 C 240.769531 149.347656 225.152344 145.917969 206.105469 144.222656 C 187.054688 145.914062 171.441406 149.347656 157.660156 152.375 C 153.132812 153.371094 148.855469 154.308594 144.757812 155.117188 C 123.175781 159.382812 106.972656 169.550781 93.769531 187.113281 C 81.925781 202.871094 73.875 222.738281 65.347656 243.769531 C 63.554688 248.199219 61.703125 252.769531 59.800781 257.328125 C 76.058594 266.609375 95.707031 274.761719 119.808594 282.21875 L 123.046875 273.453125 C 123.1875 273.070312 123.585938 272.847656 123.984375 272.925781 C 124.386719 273.003906 124.664062 273.359375 124.652344 273.769531 L 123.710938 299.246094 L 121.171875 368.0625 Z M 121.175781 368.066406 " fill-opacity="1" fill-rule="nonzero"/><path fill="#f3ac84" d="M 232.144531 148.992188 C 232.144531 174.671875 180.0625 174.671875 180.0625 148.992188 L 181.585938 125.242188 L 182.015625 118.546875 L 230.195312 118.546875 L 230.625 125.238281 L 231.464844 138.355469 Z M 232.144531 148.992188 " fill-opacity="1" fill-rule="nonzero"/><path fill="#231f20" d="M 206.105469 169.082031 C 199.125 169.082031 192.605469 167.324219 187.746094 164.128906 C 182.179688 160.472656 179.238281 155.234375 179.238281 148.992188 C 179.238281 148.972656 179.238281 148.953125 179.238281 148.9375 L 181.191406 118.488281 C 181.21875 118.054688 181.582031 117.714844 182.015625 117.714844 L 230.195312 117.714844 C 230.632812 117.714844 230.992188 118.054688 231.019531 118.488281 L 232.964844 148.9375 C 232.964844 148.9375 232.964844 148.972656 232.964844 148.992188 C 232.964844 155.230469 230.019531 160.464844 224.457031 164.128906 C 219.597656 167.324219 213.078125 169.082031 206.097656 169.082031 Z M 180.890625 149.015625 C 180.90625 157.890625 188.796875 167.425781 206.105469 167.425781 C 223.414062 167.425781 231.300781 157.890625 231.320312 149.015625 L 229.425781 119.371094 L 182.796875 119.371094 L 180.898438 149.015625 Z M 180.890625 149.015625 " fill-opacity="1" fill-rule="nonzero"/><path fill="#231f20" d="M 288.148438 274.570312 C 287.691406 274.570312 287.320312 274.199219 287.320312 273.742188 L 287.320312 234 C 287.320312 233.542969 287.691406 233.171875 288.148438 233.171875 C 288.605469 233.171875 288.976562 233.542969 288.976562 234 L 288.976562 273.742188 C 288.976562 274.199219 288.605469 274.570312 288.148438 274.570312 Z M 288.148438 274.570312 " fill-opacity="1" fill-rule="nonzero"/><path fill="#231f20" d="M 124.0625 274.570312 C 123.605469 274.570312 123.234375 274.199219 123.234375 273.742188 L 123.234375 234 C 123.234375 233.542969 123.605469 233.171875 124.0625 233.171875 C 124.519531 233.171875 124.890625 233.542969 124.890625 234 L 124.890625 273.742188 C 124.890625 274.199219 124.519531 274.570312 124.0625 274.570312 Z M 124.0625 274.570312 " fill-opacity="1" fill-rule="nonzero"/><path fill="#231f20" d="M 300.984375 308.050781 C 300.667969 308.050781 300.363281 307.867188 300.226562 307.558594 C 300.042969 307.140625 300.226562 306.652344 300.648438 306.464844 C 300.859375 306.371094 321.949219 297.207031 342.425781 301.144531 C 342.875 301.230469 343.171875 301.667969 343.085938 302.113281 C 343 302.5625 342.5625 302.855469 342.113281 302.769531 C 322.140625 298.925781 301.519531 307.890625 301.316406 307.980469 C 301.207031 308.027344 301.09375 308.050781 300.980469 308.050781 Z M 300.984375 308.050781 " fill-opacity="1" fill-rule="nonzero"/><path fill="#f3ac84" d="M 103.03125 248.882812 C 103.03125 248.882812 74.503906 303.953125 41.023438 300.476562 C 7.542969 296.992188 6.734375 270.121094 15.039062 248.882812 C 23.34375 227.648438 46.003906 196.949219 46.003906 196.949219 L 72.476562 201.140625 L 72.007812 231.433594 Z M 103.03125 248.882812 " fill-opacity="1" fill-rule="nonzero"/><g clip-path="url(#12e22183d8)"><path fill="#231f20" d="M 44.007812 301.457031 C 42.980469 301.457031 41.957031 301.402344 40.9375 301.300781 C 28.09375 299.964844 19.0625 295.152344 14.09375 287 C 8.347656 277.578125 8.410156 263.574219 14.269531 248.589844 C 18.582031 237.550781 26.804688 223.964844 32.941406 214.507812 C 39.578125 204.277344 45.277344 196.542969 45.335938 196.464844 C 45.523438 196.21875 45.824219 196.09375 46.128906 196.140625 L 72.601562 200.328125 C 73.011719 200.394531 73.304688 200.746094 73.300781 201.15625 L 72.84375 230.960938 L 103.433594 248.171875 C 103.824219 248.390625 103.96875 248.878906 103.765625 249.273438 C 103.691406 249.414062 96.460938 263.273438 85.210938 276.527344 C 71.3125 292.902344 57.136719 301.460938 44.003906 301.460938 Z M 46.375 197.847656 C 43.683594 201.542969 23.472656 229.605469 15.8125 249.1875 C 10.140625 263.6875 10.03125 277.15625 15.507812 286.140625 C 20.195312 293.832031 28.808594 298.378906 41.109375 299.65625 C 58.046875 301.417969 73.757812 287.464844 83.953125 275.453125 C 93.640625 264.039062 100.308594 252.179688 101.921875 249.207031 L 71.601562 232.152344 C 71.339844 232.003906 71.175781 231.722656 71.179688 231.417969 L 71.632812 201.84375 L 46.371094 197.84375 Z M 46.375 197.847656 " fill-opacity="1" fill-rule="nonzero"/></g><path fill="#231f20" d="M 67.085938 278.429688 C 66.941406 278.429688 66.789062 278.394531 66.660156 278.3125 C 66.269531 278.074219 66.140625 277.566406 66.378906 277.179688 C 74.027344 264.488281 71.214844 231.839844 71.1875 231.515625 C 71.148438 231.0625 71.484375 230.660156 71.941406 230.617188 C 72.398438 230.578125 72.796875 230.914062 72.839844 231.371094 C 72.847656 231.453125 73.578125 239.800781 73.332031 249.644531 C 73 262.9375 71.140625 272.488281 67.800781 278.035156 C 67.644531 278.292969 67.371094 278.433594 67.089844 278.433594 Z M 67.085938 278.429688 " fill-opacity="1" fill-rule="nonzero"/><path fill="#f3ac84" d="M 95.140625 183.269531 C 95.140625 183.269531 102.574219 179.40625 99.171875 173.90625 C 96.882812 170.207031 90.925781 172.898438 84.832031 174.714844 C 78.738281 176.53125 69.816406 177.613281 69.816406 177.613281 C 69.816406 177.613281 75.480469 188.179688 95.132812 183.265625 Z M 95.140625 183.269531 " fill-opacity="1" fill-rule="nonzero"/><path fill="#231f20" d="M 85.375 185.410156 C 73.226562 185.410156 69.285156 178.375 69.089844 178.007812 C 68.964844 177.765625 68.960938 177.476562 69.085938 177.238281 C 69.214844 176.996094 69.449219 176.828125 69.722656 176.796875 C 69.8125 176.789062 78.640625 175.703125 84.601562 173.925781 C 85.511719 173.65625 86.414062 173.363281 87.304688 173.078125 C 92.597656 171.386719 97.589844 169.78125 99.878906 173.472656 C 100.855469 175.058594 101.132812 176.679688 100.6875 178.289062 C 99.730469 181.777344 95.695312 183.914062 95.523438 184 C 95.464844 184.03125 95.40625 184.050781 95.34375 184.066406 C 91.53125 185.015625 88.230469 185.40625 85.378906 185.40625 Z M 71.273438 178.253906 C 73.269531 180.6875 79.6875 186.246094 94.835938 182.488281 C 95.367188 182.191406 98.390625 180.402344 99.089844 177.84375 C 99.40625 176.679688 99.203125 175.535156 98.464844 174.34375 C 96.859375 171.746094 92.660156 173.09375 87.804688 174.652344 C 86.902344 174.941406 85.988281 175.234375 85.066406 175.507812 C 80.328125 176.917969 74.015625 177.878906 71.269531 178.253906 Z M 95.140625 183.269531 Z M 95.140625 183.269531 Z M 95.140625 183.269531 " fill-opacity="1" fill-rule="nonzero"/><path fill="#b7c7cb" d="M 106.113281 186.855469 L 101.363281 192.988281 C 99.464844 191.515625 96.332031 189.273438 93.894531 188.53125 C 90.15625 187.390625 85.75 189.476562 85.75 189.476562 L 83.128906 182.570312 C 83.128906 182.570312 88.890625 179.597656 95.542969 181.308594 C 100.066406 182.472656 104.039062 185.214844 106.113281 186.851562 Z M 106.113281 186.855469 " fill-opacity="1" fill-rule="nonzero"/><path fill="#231f20" d="M 101.363281 193.816406 C 101.183594 193.816406 101 193.757812 100.855469 193.644531 C 97.949219 191.390625 95.394531 189.855469 93.652344 189.324219 C 90.273438 188.292969 86.144531 190.207031 86.105469 190.230469 C 85.894531 190.328125 85.65625 190.335938 85.441406 190.246094 C 85.230469 190.160156 85.0625 189.988281 84.980469 189.777344 L 82.359375 182.871094 C 82.207031 182.476562 82.375 182.039062 82.75 181.84375 C 82.996094 181.714844 88.871094 178.746094 95.75 180.515625 C 100.472656 181.730469 104.589844 184.605469 106.625 186.210938 C 106.980469 186.492188 107.042969 187.011719 106.765625 187.367188 L 102.015625 193.5 C 101.878906 193.671875 101.6875 193.785156 101.46875 193.8125 C 101.433594 193.8125 101.398438 193.816406 101.363281 193.816406 Z M 91.441406 187.363281 C 92.328125 187.363281 93.246094 187.46875 94.136719 187.738281 C 96.367188 188.417969 99.109375 190.246094 101.214844 191.832031 L 104.953125 187.003906 C 102.871094 185.441406 99.316406 183.132812 95.339844 182.113281 C 90.355469 180.832031 85.835938 182.332031 84.179688 183.011719 L 86.222656 188.390625 C 87.296875 187.984375 89.289062 187.363281 91.441406 187.363281 Z M 91.441406 187.363281 " fill-opacity="1" fill-rule="nonzero"/><path fill="#b7c7cb" d="M 72.582031 230.15625 L 67.84375 236.265625 C 64.175781 233.878906 58.65625 228.707031 59.394531 219.433594 L 66.4375 218.203125 C 66.425781 219.101562 66.566406 225.292969 72.585938 230.15625 Z M 72.582031 230.15625 " fill-opacity="1" fill-rule="nonzero"/><path fill="#231f20" d="M 67.84375 237.09375 C 67.691406 237.09375 67.53125 237.050781 67.398438 236.960938 C 63.769531 234.601562 57.792969 229.179688 58.570312 219.367188 C 58.601562 218.992188 58.882812 218.683594 59.253906 218.621094 L 66.296875 217.394531 C 66.539062 217.351562 66.785156 217.421875 66.976562 217.578125 C 67.160156 217.738281 67.269531 217.972656 67.265625 218.21875 C 67.257812 218.882812 67.351562 224.863281 73.105469 229.515625 C 73.453125 229.796875 73.511719 230.308594 73.238281 230.667969 L 68.503906 236.777344 C 68.339844 236.984375 68.09375 237.097656 67.851562 237.097656 Z M 60.179688 220.136719 C 59.792969 228.160156 64.414062 232.859375 67.667969 235.152344 L 71.441406 230.277344 C 66.773438 226.175781 65.824219 221.371094 65.648438 219.183594 Z M 60.179688 220.136719 " fill-opacity="1" fill-rule="nonzero"/><path fill="#f3ac84" d="M 50.382812 218.226562 C 50.382812 218.226562 58.59375 221.40625 64.0625 221.496094 C 69.53125 221.585938 74.074219 217.800781 71.859375 213.085938 C 71.859375 213.085938 82.589844 213.574219 79.6875 204.972656 C 79.6875 204.972656 87.808594 205.695312 85.75 196.683594 C 85.75 196.683594 95.242188 197.207031 91.734375 188.464844 C 88.230469 179.714844 73.15625 172.570312 66.433594 172.53125 C 59.707031 172.492188 54.253906 178.421875 49.941406 185.273438 C 45.625 192.128906 35.300781 214.078125 50.378906 218.226562 Z M 50.382812 218.226562 " fill-opacity="1" fill-rule="nonzero"/><path fill="#231f20" d="M 64.25 222.324219 C 64.179688 222.324219 64.113281 222.324219 64.042969 222.324219 C 58.628906 222.234375 50.820312 219.28125 50.121094 219.015625 C 46.359375 217.96875 43.816406 215.789062 42.550781 212.539062 C 39.304688 204.1875 45.503906 190.769531 49.238281 184.835938 C 54.796875 176 60.398438 171.707031 66.363281 171.707031 C 66.386719 171.707031 66.414062 171.707031 66.4375 171.707031 C 73.121094 171.742188 88.71875 178.71875 92.503906 188.15625 C 93.644531 191.003906 93.617188 193.285156 92.425781 194.945312 C 90.984375 196.945312 88.253906 197.402344 86.746094 197.496094 C 87.171875 200.144531 86.746094 202.222656 85.46875 203.679688 C 84.078125 205.269531 82.046875 205.691406 80.777344 205.785156 C 81.261719 207.871094 80.988281 209.613281 79.957031 210.980469 C 78.230469 213.273438 74.84375 213.785156 73.027344 213.894531 C 73.476562 215.53125 73.238281 217.160156 72.328125 218.566406 C 70.839844 220.863281 67.683594 222.324219 64.238281 222.324219 Z M 66.367188 173.355469 C 61.019531 173.355469 55.875 177.398438 50.640625 185.714844 C 47.765625 190.289062 40.976562 203.917969 44.09375 211.941406 C 45.164062 214.691406 47.351562 216.539062 50.601562 217.429688 C 50.628906 217.4375 50.65625 217.449219 50.683594 217.457031 C 50.765625 217.488281 58.820312 220.585938 64.074219 220.671875 C 67.046875 220.714844 69.734375 219.546875 70.949219 217.671875 C 71.765625 216.410156 71.820312 214.949219 71.113281 213.441406 C 70.988281 213.175781 71.011719 212.871094 71.171875 212.628906 C 71.328125 212.390625 71.609375 212.25 71.894531 212.261719 C 71.945312 212.261719 76.792969 212.445312 78.640625 209.984375 C 79.496094 208.851562 79.585938 207.253906 78.90625 205.234375 C 78.816406 204.972656 78.863281 204.675781 79.042969 204.460938 C 79.214844 204.242188 79.484375 204.125 79.765625 204.148438 C 79.792969 204.148438 82.6875 204.367188 84.242188 202.589844 C 85.300781 201.371094 85.539062 199.445312 84.953125 196.871094 C 84.894531 196.617188 84.957031 196.347656 85.125 196.152344 C 85.292969 195.953125 85.546875 195.84375 85.804688 195.859375 C 85.839844 195.859375 89.625 196.035156 91.097656 193.976562 C 91.9375 192.808594 91.894531 191.054688 90.980469 188.765625 C 87.496094 180.078125 72.574219 173.390625 66.4375 173.355469 C 66.417969 173.355469 66.394531 173.355469 66.375 173.355469 Z M 66.367188 173.355469 " fill-opacity="1" fill-rule="nonzero"/><path fill="#231f20" d="M 85.753906 197.507812 C 85.535156 197.507812 85.3125 197.417969 85.148438 197.242188 C 81.542969 193.339844 74.527344 189.273438 67.65625 185.441406 C 67.257812 185.222656 67.113281 184.71875 67.339844 184.320312 C 67.558594 183.921875 68.0625 183.777344 68.460938 184.003906 C 75.453125 187.902344 82.597656 192.046875 86.367188 196.121094 C 86.675781 196.457031 86.65625 196.976562 86.320312 197.289062 C 86.164062 197.433594 85.960938 197.507812 85.761719 197.507812 Z M 85.753906 197.507812 " fill-opacity="1" fill-rule="nonzero"/><path fill="#231f20" d="M 79.6875 205.796875 C 79.570312 205.796875 79.449219 205.769531 79.335938 205.714844 L 60.617188 196.832031 C 60.207031 196.636719 60.03125 196.144531 60.226562 195.734375 C 60.417969 195.320312 60.914062 195.144531 61.324219 195.339844 L 80.042969 204.21875 C 80.453125 204.414062 80.632812 204.90625 80.4375 205.320312 C 80.296875 205.617188 79.996094 205.789062 79.6875 205.789062 Z M 79.6875 205.796875 " fill-opacity="1" fill-rule="nonzero"/><path fill="#231f20" d="M 71.859375 213.910156 C 71.769531 213.910156 71.679688 213.898438 71.59375 213.867188 L 56.570312 208.707031 C 56.136719 208.558594 55.90625 208.085938 56.054688 207.65625 C 56.207031 207.226562 56.671875 206.996094 57.109375 207.144531 L 72.132812 212.304688 C 72.5625 212.453125 72.792969 212.925781 72.644531 213.355469 C 72.527344 213.699219 72.203125 213.910156 71.859375 213.910156 Z M 71.859375 213.910156 " fill-opacity="1" fill-rule="nonzero"/><path fill="#b7c7cb" d="M 66.441406 218.097656 L 67.085938 218.097656 L 66.433594 218.203125 C 66.433594 218.132812 66.4375 218.097656 66.4375 218.097656 Z M 66.441406 218.097656 " fill-opacity="1" fill-rule="nonzero"/><path fill="#b68264" d="M 291.894531 368.898438 L 120.316406 368.898438 L 122.886719 299.21875 C 150.101562 277.5 144.253906 203.3125 144.253906 203.3125 L 267.945312 203.3125 C 267.945312 203.3125 262.097656 277.523438 289.328125 299.234375 Z M 291.894531 368.898438 " fill-opacity="1" fill-rule="nonzero"/><path fill="#231f20" d="M 291.894531 369.722656 L 120.316406 369.722656 C 120.089844 369.722656 119.875 369.628906 119.722656 369.46875 C 119.570312 369.304688 119.484375 369.085938 119.492188 368.863281 L 122.0625 299.1875 C 122.070312 298.949219 122.183594 298.722656 122.375 298.574219 C 130.007812 292.480469 139.777344 277.898438 142.957031 243.046875 C 144.867188 222.09375 143.445312 203.5625 143.433594 203.378906 C 143.414062 203.144531 143.492188 202.917969 143.648438 202.753906 C 143.808594 202.585938 144.027344 202.484375 144.257812 202.484375 L 267.949219 202.484375 C 268.183594 202.484375 268.398438 202.578125 268.558594 202.753906 C 268.714844 202.917969 268.792969 203.144531 268.777344 203.378906 C 268.761719 203.5625 267.339844 222.121094 269.253906 243.078125 C 272.441406 277.925781 282.210938 292.496094 289.84375 298.585938 C 290.035156 298.734375 290.148438 298.960938 290.15625 299.203125 L 292.726562 368.863281 C 292.734375 369.089844 292.648438 369.308594 292.492188 369.46875 C 292.339844 369.628906 292.121094 369.722656 291.902344 369.722656 Z M 121.175781 368.066406 L 291.039062 368.066406 L 288.515625 299.636719 C 277.214844 290.398438 270.179688 271.414062 267.605469 243.203125 C 265.921875 224.726562 266.808594 208.101562 267.066406 204.136719 L 145.144531 204.136719 C 145.402344 208.101562 146.292969 224.722656 144.605469 243.195312 C 142.03125 271.394531 135 290.378906 123.707031 299.628906 L 121.179688 368.066406 Z M 121.175781 368.066406 " fill-opacity="1" fill-rule="nonzero"/><path fill="#b68264" d="M 261.421875 152.898438 L 261.421875 203.3125 L 247.695312 203.3125 L 247.695312 150.203125 C 247.695312 148.773438 249.066406 147.734375 250.445312 148.132812 L 259.855469 150.828125 C 260.777344 151.089844 261.421875 151.9375 261.421875 152.898438 Z M 261.421875 152.898438 " fill-opacity="1" fill-rule="nonzero"/><path fill="#b7c7cb" d="M 259.3125 217.605469 C 259.3125 217.917969 259.28125 218.226562 259.21875 218.535156 C 259.160156 218.839844 259.070312 219.136719 258.949219 219.425781 C 258.828125 219.710938 258.683594 219.988281 258.507812 220.246094 C 258.335938 220.503906 258.140625 220.746094 257.917969 220.964844 C 257.699219 221.1875 257.457031 221.382812 257.199219 221.558594 C 256.9375 221.730469 256.664062 221.875 256.375 221.996094 C 256.089844 222.113281 255.792969 222.207031 255.484375 222.265625 C 255.179688 222.328125 254.871094 222.355469 254.558594 222.355469 C 254.246094 222.355469 253.9375 222.328125 253.628906 222.265625 C 253.324219 222.207031 253.027344 222.113281 252.738281 221.996094 C 252.449219 221.875 252.175781 221.730469 251.917969 221.558594 C 251.65625 221.382812 251.417969 221.1875 251.195312 220.964844 C 250.976562 220.746094 250.78125 220.503906 250.605469 220.246094 C 250.433594 219.988281 250.285156 219.710938 250.167969 219.425781 C 250.046875 219.136719 249.957031 218.839844 249.898438 218.535156 C 249.835938 218.226562 249.804688 217.917969 249.804688 217.605469 C 249.804688 217.292969 249.835938 216.984375 249.898438 216.679688 C 249.957031 216.375 250.046875 216.078125 250.167969 215.789062 C 250.285156 215.5 250.433594 215.226562 250.605469 214.96875 C 250.78125 214.707031 250.976562 214.46875 251.195312 214.246094 C 251.417969 214.027344 251.65625 213.828125 251.917969 213.65625 C 252.175781 213.484375 252.449219 213.335938 252.738281 213.21875 C 253.027344 213.097656 253.324219 213.007812 253.628906 212.945312 C 253.9375 212.886719 254.246094 212.855469 254.558594 212.855469 C 254.871094 212.855469 255.179688 212.886719 255.484375 212.945312 C 255.792969 213.007812 256.089844 213.097656 256.375 213.21875 C 256.664062 213.335938 256.9375 213.484375 257.199219 213.65625 C 257.457031 213.828125 257.699219 214.027344 257.917969 214.246094 C 258.140625 214.46875 258.335938 214.707031 258.507812 214.96875 C 258.683594 215.226562 258.828125 215.5 258.949219 215.789062 C 259.070312 216.078125 259.160156 216.375 259.21875 216.679688 C 259.28125 216.984375 259.3125 217.292969 259.3125 217.605469 Z M 259.3125 217.605469 " fill-opacity="1" fill-rule="nonzero"/><path fill="#b68264" d="M 164.5 150.203125 L 164.5 203.3125 L 150.773438 203.3125 L 150.773438 152.898438 C 150.773438 151.933594 151.410156 151.089844 152.339844 150.828125 L 161.753906 148.132812 C 163.132812 147.734375 164.5 148.773438 164.5 150.203125 Z M 164.5 150.203125 " fill-opacity="1" fill-rule="nonzero"/><path fill="#231f20" d="M 261.421875 204.136719 L 247.695312 204.136719 C 247.234375 204.136719 246.863281 203.765625 246.863281 203.308594 L 246.863281 150.199219 C 246.863281 149.253906 247.300781 148.382812 248.054688 147.816406 C 248.8125 147.25 249.765625 147.074219 250.675781 147.335938 L 260.085938 150.03125 C 261.359375 150.394531 262.25 151.578125 262.25 152.898438 L 262.25 203.3125 C 262.25 203.769531 261.878906 204.140625 261.421875 204.140625 Z M 248.523438 202.484375 L 260.597656 202.484375 L 260.597656 152.894531 C 260.597656 152.304688 260.199219 151.78125 259.632812 151.617188 L 250.222656 148.921875 C 249.820312 148.804688 249.394531 148.886719 249.058594 149.136719 C 248.722656 149.390625 248.527344 149.777344 248.527344 150.199219 L 248.527344 202.480469 Z M 248.523438 202.484375 " fill-opacity="1" fill-rule="nonzero"/><path fill="#231f20" d="M 164.5 204.136719 L 150.773438 204.136719 C 150.3125 204.136719 149.941406 203.765625 149.941406 203.308594 L 149.941406 152.894531 C 149.941406 151.570312 150.835938 150.390625 152.109375 150.027344 L 161.523438 147.332031 C 162.429688 147.070312 163.382812 147.246094 164.132812 147.8125 C 164.890625 148.382812 165.324219 149.253906 165.324219 150.199219 L 165.324219 203.308594 C 165.324219 203.765625 164.953125 204.136719 164.496094 204.136719 Z M 151.601562 202.484375 L 163.675781 202.484375 L 163.675781 150.203125 C 163.675781 149.78125 163.480469 149.394531 163.144531 149.140625 C 162.808594 148.886719 162.390625 148.808594 161.984375 148.925781 L 152.566406 151.621094 C 151.996094 151.785156 151.601562 152.308594 151.601562 152.898438 L 151.601562 202.488281 Z M 151.601562 202.484375 " fill-opacity="1" fill-rule="nonzero"/><path fill="#b7c7cb" d="M 162.394531 217.605469 C 162.394531 217.917969 162.363281 218.226562 162.300781 218.535156 C 162.242188 218.839844 162.152344 219.136719 162.03125 219.425781 C 161.914062 219.710938 161.765625 219.988281 161.59375 220.246094 C 161.417969 220.503906 161.222656 220.746094 161 220.964844 C 160.78125 221.1875 160.539062 221.382812 160.28125 221.558594 C 160.023438 221.730469 159.746094 221.875 159.460938 221.996094 C 159.171875 222.113281 158.875 222.207031 158.566406 222.265625 C 158.261719 222.328125 157.953125 222.355469 157.640625 222.355469 C 157.328125 222.355469 157.019531 222.328125 156.714844 222.265625 C 156.40625 222.207031 156.109375 222.113281 155.820312 221.996094 C 155.535156 221.875 155.257812 221.730469 155 221.558594 C 154.742188 221.382812 154.5 221.1875 154.28125 220.964844 C 154.058594 220.746094 153.863281 220.503906 153.6875 220.246094 C 153.515625 219.988281 153.367188 219.710938 153.25 219.425781 C 153.128906 219.136719 153.039062 218.839844 152.980469 218.535156 C 152.917969 218.226562 152.886719 217.917969 152.886719 217.605469 C 152.886719 217.292969 152.917969 216.984375 152.980469 216.679688 C 153.039062 216.375 153.128906 216.078125 153.25 215.789062 C 153.367188 215.5 153.515625 215.226562 153.6875 214.96875 C 153.863281 214.707031 154.058594 214.46875 154.28125 214.246094 C 154.5 214.027344 154.742188 213.828125 155 213.65625 C 155.257812 213.484375 155.535156 213.335938 155.820312 213.21875 C 156.109375 213.097656 156.40625 213.007812 156.714844 212.945312 C 157.019531 212.886719 157.328125 212.855469 157.640625 212.855469 C 157.953125 212.855469 158.261719 212.886719 158.566406 212.945312 C 158.875 213.007812 159.171875 213.097656 159.460938 213.21875 C 159.746094 213.335938 160.023438 213.484375 160.28125 213.65625 C 160.539062 213.828125 160.78125 214.027344 161 214.246094 C 161.222656 214.46875 161.417969 214.707031 161.59375 214.96875 C 161.765625 215.226562 161.914062 215.5 162.03125 215.789062 C 162.152344 216.078125 162.242188 216.375 162.300781 216.679688 C 162.363281 216.984375 162.394531 217.292969 162.394531 217.605469 Z M 162.394531 217.605469 " fill-opacity="1" fill-rule="nonzero"/><path fill="#231f20" d="M 254.558594 223.1875 C 251.480469 223.1875 248.980469 220.6875 248.980469 217.609375 C 248.980469 214.535156 251.480469 212.035156 254.558594 212.035156 C 257.632812 212.035156 260.136719 214.535156 260.136719 217.609375 C 260.136719 220.6875 257.632812 223.1875 254.558594 223.1875 Z M 254.558594 213.683594 C 252.390625 213.683594 250.632812 215.445312 250.632812 217.605469 C 250.632812 219.765625 252.398438 221.527344 254.558594 221.527344 C 256.71875 221.527344 258.480469 219.765625 258.480469 217.605469 C 258.480469 215.445312 256.71875 213.683594 254.558594 213.683594 Z M 254.558594 213.683594 " fill-opacity="1" fill-rule="nonzero"/><path fill="#231f20" d="M 157.640625 223.1875 C 154.5625 223.1875 152.0625 220.6875 152.0625 217.609375 C 152.0625 214.535156 154.5625 212.035156 157.640625 212.035156 C 160.71875 212.035156 163.21875 214.535156 163.21875 217.609375 C 163.21875 220.6875 160.71875 223.1875 157.640625 223.1875 Z M 157.640625 213.683594 C 155.476562 213.683594 153.71875 215.445312 153.71875 217.605469 C 153.71875 219.765625 155.480469 221.527344 157.640625 221.527344 C 159.800781 221.527344 161.5625 219.765625 161.5625 217.605469 C 161.5625 215.445312 159.800781 213.683594 157.640625 213.683594 Z M 157.640625 213.683594 " fill-opacity="1" fill-rule="nonzero"/><path fill="#b7c7cb" d="M 153.804688 202.84375 C 152.40625 205.617188 141.59375 203.023438 129.640625 197.042969 C 117.6875 191.058594 109.125 183.949219 110.519531 181.167969 C 111.917969 178.390625 122.730469 180.988281 134.683594 186.96875 C 146.636719 192.953125 155.199219 200.0625 153.804688 202.84375 Z M 153.804688 202.84375 " fill-opacity="1" fill-rule="nonzero"/><path fill="#231f20" d="M 150.667969 204.765625 C 145.757812 204.765625 137.226562 201.765625 129.269531 197.78125 C 123.433594 194.859375 118.203125 191.574219 114.546875 188.535156 C 110.5 185.171875 108.894531 182.566406 109.78125 180.792969 C 111.683594 177.003906 123.9375 180.660156 135.054688 186.226562 C 140.890625 189.148438 146.117188 192.429688 149.773438 195.46875 C 153.824219 198.835938 155.429688 201.4375 154.542969 203.214844 C 154.003906 204.292969 152.621094 204.765625 150.667969 204.765625 Z M 113.59375 180.878906 C 112.089844 180.878906 111.417969 181.21875 111.257812 181.535156 C 110.976562 182.089844 111.582031 183.925781 115.605469 187.261719 C 119.171875 190.222656 124.285156 193.433594 130.011719 196.296875 C 135.738281 199.164062 141.371094 201.339844 145.875 202.421875 C 150.957031 203.640625 152.785156 203.027344 153.066406 202.472656 C 153.34375 201.914062 152.742188 200.082031 148.71875 196.742188 C 145.152344 193.78125 140.039062 190.574219 134.3125 187.707031 C 128.585938 184.839844 122.953125 182.667969 118.449219 181.585938 C 116.285156 181.0625 114.710938 180.878906 113.59375 180.878906 Z M 153.804688 202.84375 Z M 153.804688 202.84375 " fill-opacity="1" fill-rule="nonzero"/><path fill="#b7c7cb" d="M 153.804688 202.84375 L 137.417969 263.015625 L 135.453125 270.226562 L 132.675781 280.441406 C 131.363281 285.261719 126.308594 288.039062 121.535156 286.542969 C 106.421875 281.8125 75.746094 270.925781 61.699219 256.691406 C 58.59375 253.546875 58.308594 248.589844 61.011719 245.101562 L 67.851562 236.273438 L 72.585938 230.164062 L 101.367188 192.996094 L 106.117188 186.863281 L 110.523438 181.171875 C 109.128906 183.953125 117.691406 191.0625 129.644531 197.046875 C 141.597656 203.027344 152.414062 205.625 153.808594 202.847656 Z M 153.804688 202.84375 " fill-opacity="1" fill-rule="nonzero"/><path fill="#231f20" d="M 124.175781 287.777344 C 123.210938 287.777344 122.238281 287.625 121.285156 287.332031 C 104.792969 282.167969 75.050781 271.394531 61.109375 257.269531 C 57.726562 253.851562 57.40625 248.402344 60.359375 244.59375 L 109.871094 180.660156 C 110.136719 180.324219 110.605469 180.238281 110.96875 180.464844 C 111.328125 180.691406 111.457031 181.152344 111.269531 181.535156 C 110.988281 182.089844 111.589844 183.925781 115.613281 187.261719 C 119.179688 190.222656 124.292969 193.433594 130.019531 196.296875 C 135.746094 199.164062 141.378906 201.339844 145.882812 202.421875 C 150.96875 203.640625 152.792969 203.027344 153.074219 202.472656 C 153.265625 202.089844 153.710938 201.917969 154.105469 202.066406 C 154.503906 202.21875 154.71875 202.648438 154.609375 203.054688 L 138.226562 263.230469 L 133.476562 280.648438 C 132.785156 283.203125 131.121094 285.308594 128.796875 286.582031 C 127.355469 287.367188 125.777344 287.773438 124.183594 287.773438 Z M 109.90625 183.308594 L 61.664062 245.605469 C 59.21875 248.757812 59.488281 253.269531 62.28125 256.105469 C 75.972656 269.976562 105.433594 280.632812 121.773438 285.75 C 123.863281 286.402344 126.070312 286.1875 127.992188 285.136719 C 129.917969 284.082031 131.292969 282.335938 131.871094 280.21875 L 152.464844 204.589844 C 148.101562 205.570312 138.3125 202.304688 129.269531 197.78125 C 123.433594 194.859375 118.203125 191.574219 114.546875 188.535156 C 112.117188 186.515625 110.5625 184.769531 109.90625 183.308594 Z M 109.90625 183.308594 " fill-opacity="1" fill-rule="nonzero"/><path fill="#b7c7cb" d="M 211.707031 229.132812 C 211.707031 229.132812 208.484375 227.972656 204.269531 227.5625 C 204.269531 227.554688 204.265625 227.554688 204.265625 227.554688 C 199.976562 227.140625 194.910156 227.84375 190.652344 230.609375 C 175.5 240.445312 168.667969 267.222656 156.269531 270.996094 C 147.320312 273.714844 139.808594 272.183594 135.453125 270.226562 L 137.417969 263.015625 C 141.265625 264.460938 147.941406 266.019531 154.597656 263.121094 C 164.828125 258.664062 171.8125 231.242188 189.296875 222.179688 C 194.890625 219.277344 200.972656 219.054688 204.28125 219.996094 C 208.332031 221.160156 210.324219 224.671875 211.707031 229.132812 Z M 211.707031 229.132812 " fill-opacity="1" fill-rule="nonzero"/><path fill="#231f20" d="M 146.632812 273.292969 C 141.085938 273.292969 137.027344 271.835938 135.113281 270.980469 C 134.742188 270.8125 134.546875 270.398438 134.65625 270.003906 L 136.621094 262.796875 C 136.6875 262.570312 136.835938 262.382812 137.042969 262.277344 C 137.253906 262.175781 137.492188 262.160156 137.710938 262.242188 C 141.085938 263.511719 147.726562 265.210938 154.265625 262.363281 C 158.546875 260.5 162.34375 254.195312 166.738281 246.894531 C 172.464844 237.386719 178.953125 226.609375 188.917969 221.445312 C 194.660156 218.46875 200.886719 218.171875 204.507812 219.207031 C 209.359375 220.59375 211.324219 225.117188 212.496094 228.890625 C 212.589844 229.191406 212.503906 229.515625 212.277344 229.734375 C 212.050781 229.953125 211.71875 230.019531 211.425781 229.914062 C 211.394531 229.90625 208.246094 228.789062 204.183594 228.390625 C 204.152344 228.390625 204.125 228.378906 204.097656 228.375 C 201.289062 228.113281 195.945312 228.164062 191.09375 231.304688 C 183.867188 236 178.609375 244.574219 173.515625 252.878906 C 168.1875 261.5625 163.15625 269.769531 156.5 271.792969 C 152.859375 272.898438 149.535156 273.300781 146.621094 273.300781 Z M 136.4375 269.746094 C 139.597656 271.035156 146.710938 273.035156 156.023438 270.203125 C 162.078125 268.367188 166.953125 260.417969 172.113281 252.007812 C 177.296875 243.550781 182.660156 234.8125 190.199219 229.914062 C 195.511719 226.464844 201.339844 226.441406 204.34375 226.730469 C 204.375 226.730469 204.40625 226.742188 204.4375 226.746094 C 206.925781 226.996094 209.054688 227.492188 210.410156 227.863281 C 208.902344 223.765625 206.953125 221.621094 204.054688 220.785156 C 200.855469 219.875 194.992188 220.148438 189.675781 222.90625 C 180.125 227.855469 173.765625 238.421875 168.152344 247.738281 C 163.609375 255.28125 159.6875 261.792969 154.921875 263.867188 C 148.371094 266.722656 141.78125 265.375 137.976562 264.085938 L 136.433594 269.738281 Z M 136.4375 269.746094 " fill-opacity="1" fill-rule="nonzero"/><path fill="#231f20" d="M 211.707031 229.960938 C 211.609375 229.960938 211.519531 229.949219 211.425781 229.910156 C 211.394531 229.902344 208.246094 228.785156 204.183594 228.386719 C 204.050781 228.371094 203.921875 228.328125 203.8125 228.253906 C 201.519531 226.964844 201.25 223.367188 201.941406 221.253906 C 202.398438 219.859375 203.269531 219.09375 204.277344 219.171875 C 204.355469 219.171875 204.433594 219.183594 204.507812 219.207031 C 209.355469 220.597656 211.320312 225.109375 212.496094 228.890625 C 212.589844 229.191406 212.503906 229.515625 212.277344 229.734375 C 212.117188 229.882812 211.914062 229.964844 211.707031 229.964844 Z M 204.539062 226.757812 C 206.980469 227.011719 209.070312 227.496094 210.410156 227.867188 C 208.917969 223.820312 207 221.671875 204.15625 220.820312 C 204.15625 220.820312 204.148438 220.820312 204.144531 220.820312 C 204.03125 220.820312 203.742188 221.089844 203.519531 221.765625 C 203.03125 223.261719 203.199219 225.890625 204.539062 226.757812 Z M 204.539062 226.757812 " fill-opacity="1" fill-rule="nonzero"/><path fill="#231f20" d="M 217.203125 278.550781 C 216.746094 278.550781 216.371094 278.179688 216.371094 277.722656 C 216.371094 244.222656 210.984375 229.566406 210.929688 229.421875 C 210.769531 228.996094 210.984375 228.515625 211.410156 228.359375 C 211.835938 228.195312 212.316406 228.414062 212.476562 228.839844 C 212.703125 229.4375 218.027344 243.917969 218.023438 277.722656 C 218.023438 278.179688 217.652344 278.550781 217.191406 278.550781 Z M 217.203125 278.550781 " fill-opacity="1" fill-rule="nonzero"/><path fill="#ffffff" d="M 222.90625 241.117188 C 221.992188 241.117188 221.253906 240.378906 221.253906 239.460938 C 221.253906 239.054688 220.933594 238.34375 220.574219 237.519531 C 219.59375 235.320312 218.117188 231.996094 218.117188 225.753906 C 218.117188 220.902344 220.308594 218.035156 222.429688 215.265625 C 224.492188 212.570312 226.441406 210.027344 226.394531 205.453125 C 226.355469 201.253906 224.996094 199.03125 223.558594 196.679688 C 222.050781 194.210938 220.488281 191.65625 220.488281 187.148438 C 220.488281 180.808594 227.871094 175.417969 228.1875 175.183594 C 228.933594 174.652344 229.964844 174.816406 230.5 175.5625 C 231.035156 176.304688 230.867188 177.335938 230.125 177.871094 C 228.367188 179.144531 223.792969 183.296875 223.792969 187.148438 C 223.792969 190.726562 224.996094 192.683594 226.382812 194.953125 C 227.917969 197.460938 229.652344 200.304688 229.703125 205.417969 C 229.757812 211.128906 227.261719 214.390625 225.058594 217.273438 C 223.109375 219.820312 221.425781 222.023438 221.425781 225.753906 C 221.425781 231.292969 222.679688 234.117188 223.59375 236.179688 C 224.109375 237.34375 224.558594 238.351562 224.558594 239.460938 C 224.558594 240.378906 223.820312 241.117188 222.90625 241.117188 Z M 222.90625 241.117188 " fill-opacity="1" fill-rule="nonzero"/><path fill="#ffffff" d="M 235.847656 250.84375 C 234.929688 250.84375 234.191406 250.105469 234.191406 249.191406 C 234.191406 248.78125 233.875 248.070312 233.511719 247.246094 C 232.535156 245.046875 231.058594 241.722656 231.058594 235.480469 C 231.058594 230.632812 233.25 227.765625 235.371094 224.992188 C 237.433594 222.296875 239.378906 219.753906 239.335938 215.179688 C 239.292969 210.980469 237.933594 208.757812 236.5 206.40625 C 234.988281 203.9375 233.425781 201.382812 233.425781 196.878906 C 233.425781 190.539062 240.8125 185.140625 241.128906 184.914062 C 241.871094 184.378906 242.90625 184.546875 243.441406 185.289062 C 243.972656 186.03125 243.804688 187.0625 243.0625 187.597656 C 241.304688 188.871094 236.734375 193.023438 236.734375 196.878906 C 236.734375 200.457031 237.933594 202.414062 239.320312 204.679688 C 240.855469 207.191406 242.59375 210.035156 242.640625 215.148438 C 242.695312 220.859375 240.199219 224.117188 238 227 C 236.050781 229.550781 234.363281 231.75 234.363281 235.480469 C 234.363281 241.019531 235.621094 243.847656 236.535156 245.90625 C 237.050781 247.070312 237.5 248.082031 237.5 249.191406 C 237.5 250.105469 236.761719 250.84375 235.847656 250.84375 Z M 235.847656 250.84375 " fill-opacity="1" fill-rule="nonzero"/><path fill="#231f20" d="M 205.199219 178.871094 C 189.917969 178.871094 176.523438 170.492188 169.367188 156.449219 C 169.15625 156.042969 169.320312 155.542969 169.730469 155.339844 C 170.136719 155.132812 170.636719 155.292969 170.839844 155.703125 C 177.710938 169.179688 190.550781 177.21875 205.199219 177.21875 C 205.222656 177.21875 205.246094 177.21875 205.269531 177.21875 C 220 177.195312 233.3125 168.949219 240.007812 155.703125 C 240.21875 155.292969 240.710938 155.132812 241.121094 155.335938 C 241.527344 155.539062 241.691406 156.039062 241.488281 156.445312 C 234.503906 170.25 220.628906 178.84375 205.273438 178.867188 L 205.199219 178.867188 Z M 205.199219 178.871094 " fill-opacity="1" fill-rule="nonzero"/><path fill="#050606" d="M 231.464844 138.355469 C 203.945312 153.152344 190.011719 127.566406 190.011719 127.566406 L 209.355469 118.546875 L 230.199219 118.546875 L 230.632812 125.238281 L 231.46875 138.355469 Z M 231.464844 138.355469 " fill-opacity="1" fill-rule="nonzero"/><path fill="#dae3e5" d="M 109.15625 193.632812 L 69.582031 246.695312 C 68.429688 248.238281 68.765625 250.421875 70.324219 251.550781 L 73.210938 253.640625 C 74.851562 254.828125 77.152344 254.363281 78.195312 252.628906 L 112.390625 195.800781 C 112.894531 194.96875 112.703125 193.894531 111.949219 193.28125 C 111.085938 192.585938 109.820312 192.742188 109.15625 193.632812 Z M 109.15625 193.632812 " fill-opacity="1" fill-rule="nonzero"/><path fill="#f3ac84" d="M 265.492188 94.25 C 264.375 101.703125 256.847656 106.757812 248.667969 105.539062 C 248.460938 105.507812 248.253906 105.472656 248.050781 105.433594 C 245.757812 111.550781 242.601562 117.015625 238.816406 121.601562 C 236.535156 124.378906 234.015625 126.832031 231.332031 128.90625 C 223.675781 134.824219 214.621094 137.703125 205.429688 136.335938 C 199.375 135.429688 193.90625 132.777344 189.277344 128.808594 C 186.890625 126.765625 184.726562 124.367188 182.828125 121.6875 C 177.609375 114.339844 174.328125 104.8125 173.671875 94.355469 C 173.460938 94.332031 173.257812 94.304688 173.054688 94.277344 C 164.871094 93.058594 159.140625 86.03125 160.253906 78.570312 C 161.363281 71.117188 168.898438 66.0625 177.082031 67.28125 C 177.332031 67.320312 177.582031 67.359375 177.820312 67.414062 C 185.546875 47.386719 202.644531 34.441406 220.238281 37.066406 C 237.820312 39.679688 250.402344 57.046875 251.953125 78.453125 C 252.203125 78.476562 252.445312 78.503906 252.699219 78.539062 C 260.882812 79.757812 266.613281 86.785156 265.5 94.246094 Z M 265.492188 94.25 " fill-opacity="1" fill-rule="nonzero"/><path fill="#231f20" d="M 209.878906 137.492188 C 208.347656 137.492188 206.820312 137.378906 205.304688 137.15625 C 199.222656 136.25 193.648438 133.652344 188.734375 129.4375 C 186.308594 127.359375 184.089844 124.910156 182.148438 122.160156 C 176.835938 114.6875 173.644531 105.339844 172.886719 95.089844 C 168.738281 94.457031 165.058594 92.398438 162.519531 89.285156 C 159.953125 86.140625 158.855469 82.289062 159.429688 78.449219 C 160 74.613281 162.171875 71.253906 165.546875 68.988281 C 168.894531 66.742188 173.03125 65.84375 177.195312 66.464844 C 177.226562 66.46875 177.257812 66.476562 177.289062 66.480469 C 181.144531 56.804688 187.359375 48.519531 194.832031 43.078125 C 202.769531 37.304688 211.59375 34.945312 220.351562 36.25 C 229.105469 37.550781 236.851562 42.378906 242.761719 50.214844 C 248.324219 57.59375 251.84375 67.335938 252.714844 77.710938 C 252.75 77.714844 252.78125 77.71875 252.816406 77.726562 C 256.976562 78.34375 260.671875 80.40625 263.222656 83.53125 C 265.789062 86.679688 266.886719 90.527344 266.3125 94.367188 C 265.132812 102.25 257.1875 107.625 248.582031 106.359375 C 246.304688 112.238281 243.234375 117.539062 239.457031 122.121094 C 237.164062 124.914062 234.601562 127.417969 231.839844 129.558594 C 225.121094 134.75 217.46875 137.492188 209.882812 137.492188 Z M 174.625 67.929688 C 171.6875 67.929688 168.855469 68.765625 166.472656 70.367188 C 163.488281 72.367188 161.570312 75.324219 161.066406 78.699219 C 160.5625 82.074219 161.53125 85.464844 163.800781 88.246094 C 166.089844 91.054688 169.417969 92.90625 173.167969 93.460938 C 173.351562 93.484375 173.546875 93.511719 173.753906 93.535156 C 174.15625 93.574219 174.464844 93.902344 174.492188 94.304688 C 175.128906 104.515625 178.246094 113.820312 183.496094 121.210938 C 185.359375 123.847656 187.484375 126.191406 189.8125 128.183594 C 194.484375 132.191406 199.78125 134.660156 205.550781 135.523438 C 214.132812 136.796875 223.109375 134.21875 230.824219 128.253906 C 233.488281 126.191406 235.964844 123.777344 238.179688 121.074219 C 241.980469 116.464844 245.042969 111.105469 247.277344 105.140625 C 247.421875 104.757812 247.824219 104.539062 248.222656 104.625 C 248.414062 104.667969 248.601562 104.699219 248.792969 104.726562 C 256.5 105.871094 263.628906 101.121094 264.671875 94.128906 C 265.171875 90.753906 264.203125 87.367188 261.933594 84.582031 C 259.644531 81.773438 256.320312 79.921875 252.570312 79.363281 C 252.328125 79.328125 252.097656 79.300781 251.867188 79.28125 C 251.464844 79.246094 251.144531 78.925781 251.113281 78.515625 C 249.566406 57.078125 236.8125 40.367188 220.101562 37.882812 C 203.386719 35.394531 186.3125 47.65625 178.578125 67.710938 C 178.429688 68.097656 178.023438 68.3125 177.621094 68.21875 C 177.398438 68.167969 177.171875 68.132812 176.945312 68.097656 C 176.167969 67.980469 175.386719 67.925781 174.617188 67.925781 Z M 174.625 67.929688 " fill-opacity="1" fill-rule="nonzero"/><path fill="#231f20" d="M 250.6875 98.007812 C 250.507812 98.007812 250.332031 97.949219 250.175781 97.832031 C 249.820312 97.550781 249.753906 97.03125 250.039062 96.671875 C 252.609375 93.414062 255.6875 91.203125 259.441406 89.917969 C 259.871094 89.765625 260.34375 89.996094 260.492188 90.433594 C 260.644531 90.863281 260.410156 91.332031 259.976562 91.484375 C 256.535156 92.660156 253.707031 94.695312 251.339844 97.695312 C 251.179688 97.90625 250.933594 98.015625 250.6875 98.015625 Z M 250.6875 98.007812 " fill-opacity="1" fill-rule="nonzero"/><path fill="#231f20" d="M 173.546875 86.519531 C 173.21875 86.519531 172.90625 86.320312 172.777344 85.996094 C 171.390625 82.429688 169.28125 79.664062 166.332031 77.535156 C 165.960938 77.265625 165.878906 76.75 166.144531 76.378906 C 166.414062 76.007812 166.929688 75.925781 167.300781 76.195312 C 170.515625 78.515625 172.8125 81.527344 174.316406 85.398438 C 174.484375 85.824219 174.273438 86.300781 173.847656 86.464844 C 173.746094 86.5 173.648438 86.519531 173.546875 86.519531 Z M 173.546875 86.519531 " fill-opacity="1" fill-rule="nonzero"/><path fill="#231f20" d="M 225.960938 73.46875 C 229.832031 72.472656 234.054688 73.039062 237.621094 74.816406 C 239.253906 75.625 240.710938 76.792969 241.871094 78.195312 C 242.664062 79.101562 241.578125 80.441406 240.535156 79.871094 C 239.957031 79.578125 239.394531 79.1875 238.800781 78.929688 C 237.207031 78.140625 235.484375 77.617188 233.730469 77.332031 C 231.332031 76.941406 228.859375 76.921875 226.429688 76.945312 C 224.378906 76.921875 224.003906 74.023438 225.964844 73.472656 Z M 225.960938 73.46875 " fill-opacity="1" fill-rule="nonzero"/><path fill="#231f20" d="M 202.21875 73.308594 C 198.835938 72.25 195.324219 71.242188 191.75 71.457031 C 191.007812 71.492188 190.25 71.605469 189.523438 71.714844 C 189.042969 71.832031 188.53125 71.949219 188.042969 72.046875 C 186.859375 72.289062 186.234375 70.679688 187.25 70.054688 C 187.84375 69.691406 188.5 69.265625 189.15625 69.007812 C 192.480469 67.535156 196.375 67.515625 199.84375 68.445312 C 201.265625 68.855469 202.582031 69.363281 203.851562 70.167969 C 205.652344 71.355469 204.214844 74.074219 202.21875 73.304688 Z M 202.21875 73.308594 " fill-opacity="1" fill-rule="nonzero"/><path fill="#050606" d="M 230.539062 83.605469 C 230.921875 83.660156 231.277344 83.816406 231.605469 84.074219 C 231.929688 84.332031 232.199219 84.667969 232.417969 85.082031 C 232.632812 85.5 232.777344 85.964844 232.851562 86.476562 C 232.925781 86.988281 232.921875 87.511719 232.84375 88.042969 C 232.765625 88.570312 232.617188 89.070312 232.394531 89.539062 C 232.175781 90.007812 231.898438 90.410156 231.570312 90.746094 C 231.242188 91.082031 230.886719 91.324219 230.5 91.472656 C 230.113281 91.625 229.726562 91.671875 229.34375 91.613281 C 228.957031 91.554688 228.601562 91.398438 228.277344 91.140625 C 227.953125 90.886719 227.679688 90.550781 227.464844 90.132812 C 227.25 89.71875 227.101562 89.253906 227.027344 88.742188 C 226.957031 88.230469 226.957031 87.707031 227.035156 87.175781 C 227.117188 86.644531 227.265625 86.144531 227.488281 85.675781 C 227.707031 85.207031 227.980469 84.804688 228.308594 84.472656 C 228.636719 84.136719 228.996094 83.894531 229.382812 83.742188 C 229.765625 83.59375 230.152344 83.546875 230.539062 83.605469 Z M 230.539062 83.605469 " fill-opacity="1" fill-rule="nonzero"/><path fill="#050606" d="M 196.777344 78.570312 C 197.164062 78.628906 197.515625 78.785156 197.84375 79.042969 C 198.167969 79.296875 198.4375 79.632812 198.65625 80.050781 C 198.871094 80.46875 199.015625 80.929688 199.089844 81.445312 C 199.164062 81.957031 199.164062 82.476562 199.082031 83.007812 C 199.003906 83.539062 198.855469 84.039062 198.632812 84.507812 C 198.414062 84.976562 198.140625 85.378906 197.8125 85.714844 C 197.484375 86.050781 197.125 86.292969 196.738281 86.441406 C 196.351562 86.59375 195.96875 86.636719 195.582031 86.582031 C 195.199219 86.523438 194.84375 86.367188 194.515625 86.109375 C 194.191406 85.855469 193.921875 85.519531 193.703125 85.101562 C 193.488281 84.6875 193.34375 84.222656 193.269531 83.707031 C 193.195312 83.195312 193.195312 82.675781 193.277344 82.144531 C 193.355469 81.613281 193.503906 81.113281 193.726562 80.644531 C 193.945312 80.175781 194.21875 79.773438 194.550781 79.4375 C 194.878906 79.105469 195.234375 78.859375 195.621094 78.710938 C 196.007812 78.5625 196.390625 78.515625 196.777344 78.570312 Z M 196.777344 78.570312 " fill-opacity="1" fill-rule="nonzero"/><path fill="#231f20" d="M 212.15625 103.105469 C 212.109375 103.105469 212.0625 103.105469 212.019531 103.09375 C 208.539062 102.523438 206.585938 101.550781 205.878906 100.039062 C 205.007812 98.171875 206.234375 96.101562 207.527344 93.914062 L 207.632812 93.738281 C 209.71875 90.214844 212.882812 80.675781 212.914062 80.578125 C 213.0625 80.144531 213.527344 79.90625 213.960938 80.050781 C 214.398438 80.199219 214.632812 80.664062 214.488281 81.097656 C 214.355469 81.496094 211.234375 90.902344 209.058594 94.582031 L 208.957031 94.761719 C 207.890625 96.566406 206.882812 98.265625 207.382812 99.34375 C 207.828125 100.292969 209.476562 101.007812 212.289062 101.46875 C 212.738281 101.542969 213.046875 101.96875 212.96875 102.421875 C 212.902344 102.824219 212.554688 103.113281 212.15625 103.113281 Z M 212.15625 103.105469 " fill-opacity="1" fill-rule="nonzero"/><path fill="#231f20" d="M 248.476562 63.265625 C 248.050781 63.265625 247.6875 62.933594 247.652344 62.5 C 247.617188 62.046875 247.957031 61.648438 248.414062 61.609375 L 253.03125 61.253906 C 253.488281 61.21875 253.882812 61.558594 253.917969 62.015625 C 253.957031 62.46875 253.617188 62.867188 253.15625 62.902344 L 248.542969 63.257812 C 248.542969 63.257812 248.496094 63.257812 248.476562 63.257812 Z M 248.476562 63.265625 " fill-opacity="1" fill-rule="nonzero"/><path fill="#613f32" d="M 250.101562 78.160156 C 250.101562 78.160156 249.433594 87.203125 248.183594 91.011719 C 246.933594 94.824219 249.796875 94.894531 251.507812 91.699219 C 253.21875 88.511719 262.65625 71.15625 263.066406 57.082031 C 263.066406 57.082031 279.453125 35.515625 257.367188 24.195312 C 235.273438 12.871094 239.183594 9.28125 230.277344 7.070312 C 221.371094 4.859375 207.535156 3.363281 197.097656 17.304688 C 197.097656 17.304688 178.820312 8.964844 172.492188 37.410156 C 166.164062 65.855469 175.058594 81.632812 175.84375 81.75 C 176.628906 81.867188 177.59375 80.800781 179.238281 67.597656 C 179.238281 67.597656 185.601562 62.433594 186.953125 56.261719 C 188.308594 50.089844 191.714844 45.59375 198.308594 47.183594 C 198.308594 47.183594 200.59375 42.394531 203.921875 43.210938 C 207.257812 44.03125 225.484375 63.875 248.488281 62.425781 C 248.488281 62.425781 243.753906 68.328125 250.105469 78.152344 Z M 250.101562 78.160156 " fill-opacity="1" fill-rule="nonzero"/><g clip-path="url(#c27a0e0b45)"><path fill="#231f20" d="M 248.875 94.824219 C 248.632812 94.824219 248.390625 94.78125 248.164062 94.679688 C 247.742188 94.5 246.4375 93.683594 247.398438 90.757812 C 248.488281 87.453125 249.132812 79.902344 249.257812 78.371094 C 244.570312 70.976562 245.894531 65.707031 247.007812 63.328125 C 229.710938 63.730469 215.125 52.496094 208.019531 47.015625 C 206.121094 45.550781 204.328125 44.171875 203.722656 44.019531 C 201.089844 43.378906 199.070312 47.503906 199.050781 47.542969 C 198.882812 47.898438 198.488281 48.082031 198.113281 47.992188 C 195.808594 47.4375 193.824219 47.664062 192.222656 48.667969 C 190.140625 49.972656 188.59375 52.664062 187.765625 56.449219 C 186.507812 62.183594 181.273438 66.960938 180.023438 68.027344 C 178.507812 80.074219 177.59375 81.691406 176.789062 82.304688 C 176.476562 82.539062 176.109375 82.632812 175.722656 82.574219 C 175.324219 82.515625 175.046875 82.222656 174.734375 81.761719 C 174.636719 81.621094 165.132812 66.695312 171.6875 37.234375 C 174.019531 26.738281 178.226562 19.914062 184.199219 16.949219 C 189.746094 14.191406 195.042969 15.667969 196.824219 16.308594 C 204.855469 5.933594 215.871094 2.648438 230.476562 6.273438 C 234.695312 7.320312 236.257812 8.738281 238.625 10.878906 C 241.445312 13.4375 245.710938 17.300781 257.742188 23.464844 C 264.152344 26.753906 268.046875 31.214844 269.300781 36.734375 C 271.484375 46.328125 265.027344 55.792969 263.886719 57.371094 C 263.550781 66.394531 259.457031 78.644531 252.332031 91.917969 L 252.238281 92.09375 C 251.324219 93.800781 250.027344 94.820312 248.875 94.820312 Z M 248.480469 61.609375 C 248.789062 61.609375 249.070312 61.785156 249.214844 62.054688 C 249.367188 62.34375 249.335938 62.699219 249.125 62.953125 C 248.953125 63.171875 244.875 68.554688 250.792969 77.707031 C 250.890625 77.855469 250.9375 78.039062 250.925781 78.214844 C 250.898438 78.585938 250.234375 87.402344 248.96875 91.265625 C 248.527344 92.601562 248.75 93.109375 248.8125 93.15625 C 248.988281 93.242188 249.953125 92.84375 250.773438 91.308594 L 250.871094 91.128906 C 257.941406 77.953125 261.980469 65.851562 262.234375 57.058594 C 262.238281 56.886719 262.296875 56.71875 262.402344 56.585938 C 262.476562 56.484375 269.855469 46.613281 267.679688 37.085938 C 266.53125 32.070312 262.933594 27.980469 256.980469 24.933594 C 244.753906 18.667969 240.390625 14.714844 237.503906 12.101562 C 235.171875 9.988281 233.882812 8.824219 230.070312 7.875 C 226.269531 6.933594 220.507812 5.8125 214.402344 6.949219 C 207.832031 8.171875 202.226562 11.820312 197.75 17.804688 C 197.519531 18.117188 197.097656 18.21875 196.746094 18.0625 C 196.6875 18.035156 190.855469 15.460938 184.902344 18.4375 C 179.414062 21.179688 175.503906 27.621094 173.289062 37.589844 C 170.113281 51.871094 170.90625 62.660156 172.132812 69.195312 C 173.332031 75.566406 175.175781 79.441406 175.984375 80.6875 C 176.441406 79.800781 177.246094 76.820312 178.410156 67.503906 C 178.4375 67.289062 178.542969 67.101562 178.707031 66.964844 C 178.773438 66.914062 184.863281 61.90625 186.140625 56.09375 C 187.082031 51.804688 188.832031 48.835938 191.335938 47.269531 C 193.179688 46.117188 195.371094 45.773438 197.863281 46.253906 C 198.660156 44.878906 200.917969 41.640625 204.109375 42.421875 C 205.007812 42.644531 206.335938 43.644531 209.015625 45.710938 C 216.171875 51.226562 231.070312 62.707031 248.417969 61.621094 C 248.4375 61.621094 248.453125 61.621094 248.472656 61.621094 Z M 248.480469 61.609375 " fill-opacity="1" fill-rule="nonzero"/></g><path fill="#231f20" d="M 245.496094 49.265625 C 240.054688 49.265625 234.855469 47.355469 224.609375 37.867188 C 210.800781 25.074219 207.765625 26 202.25 27.691406 C 201.816406 27.824219 201.351562 27.578125 201.21875 27.140625 C 201.085938 26.707031 201.332031 26.246094 201.765625 26.109375 C 208.152344 24.152344 211.84375 23.785156 225.734375 36.65625 C 238.53125 48.515625 243.03125 48.039062 250.484375 47.253906 C 251.125 47.1875 251.785156 47.117188 252.472656 47.054688 C 252.929688 47.011719 253.332031 47.34375 253.375 47.804688 C 253.417969 48.253906 253.085938 48.660156 252.628906 48.703125 C 251.945312 48.765625 251.292969 48.835938 250.65625 48.902344 C 248.8125 49.097656 247.140625 49.269531 245.492188 49.269531 Z M 245.496094 49.265625 " fill-opacity="1" fill-rule="nonzero"/><path fill="#231f20" d="M 249.195312 38.914062 C 249.167969 38.914062 249.144531 38.914062 249.117188 38.914062 C 237.570312 37.847656 231.070312 30.917969 226.695312 25 C 226.421875 24.632812 226.5 24.117188 226.867188 23.84375 C 227.234375 23.574219 227.75 23.652344 228.019531 24.015625 C 234.214844 32.398438 240.765625 36.484375 249.265625 37.269531 C 249.71875 37.308594 250.054688 37.710938 250.011719 38.164062 C 249.972656 38.59375 249.613281 38.917969 249.1875 38.917969 Z M 249.195312 38.914062 " fill-opacity="1" fill-rule="nonzero"/><path fill="#231f20" d="M 179.097656 54.523438 C 179.097656 54.523438 179.058594 54.523438 179.035156 54.523438 C 178.582031 54.488281 178.238281 54.09375 178.273438 53.636719 C 178.832031 46.328125 181.015625 41 184.765625 37.804688 C 188.703125 34.453125 192.894531 34.757812 193.070312 34.773438 C 193.523438 34.808594 193.863281 35.210938 193.828125 35.664062 C 193.792969 36.117188 193.394531 36.457031 192.933594 36.421875 C 192.867188 36.421875 189.199219 36.183594 185.808594 39.085938 C 182.425781 41.988281 180.4375 46.925781 179.917969 53.757812 C 179.886719 54.191406 179.523438 54.523438 179.09375 54.523438 Z M 179.097656 54.523438 " fill-opacity="1" fill-rule="nonzero"/><path fill="#231f20" d="M 211.6875 115.9375 C 210.628906 115.9375 209.519531 115.84375 208.386719 115.648438 C 204.378906 114.960938 199.636719 112.792969 198.34375 108.765625 C 198.203125 108.332031 198.445312 107.863281 198.878906 107.722656 C 199.316406 107.582031 199.78125 107.824219 199.921875 108.257812 C 200.992188 111.582031 205.140625 113.410156 208.664062 114.019531 C 213.007812 114.765625 216.964844 113.898438 218.515625 111.863281 C 218.792969 111.5 219.3125 111.429688 219.675781 111.703125 C 220.039062 111.980469 220.109375 112.5 219.835938 112.863281 C 218.328125 114.839844 215.304688 115.9375 211.691406 115.9375 Z M 211.6875 115.9375 " fill-opacity="1" fill-rule="nonzero"/><path fill="#e0dcd5" d="M 268.992188 319.558594 L 268.992188 340.882812 C 268.992188 347.796875 262.601562 353.40625 255.675781 353.40625 L 253.542969 347.160156 L 256.464844 347.160156 C 259.925781 347.160156 262.75 344.339844 262.75 340.882812 L 262.75 319.558594 C 262.75 316.09375 259.925781 313.277344 256.464844 313.277344 L 241.714844 315.664062 L 241.714844 308.695312 L 256.464844 307.027344 C 263.386719 307.027344 268.996094 312.640625 268.996094 319.558594 Z M 268.992188 319.558594 " fill-opacity="1" fill-rule="nonzero"/><path fill="#231f20" d="M 255.671875 354.230469 C 255.320312 354.230469 255.007812 354.007812 254.890625 353.675781 L 252.753906 347.425781 C 252.667969 347.171875 252.710938 346.894531 252.863281 346.679688 C 253.015625 346.460938 253.269531 346.335938 253.535156 346.335938 L 256.457031 346.335938 C 259.464844 346.335938 261.914062 343.886719 261.914062 340.886719 L 261.914062 319.5625 C 261.914062 316.578125 259.5 314.144531 256.523438 314.113281 L 241.839844 316.484375 C 241.601562 316.519531 241.355469 316.453125 241.175781 316.300781 C 240.988281 316.140625 240.882812 315.914062 240.882812 315.667969 L 240.882812 308.699219 C 240.882812 308.277344 241.203125 307.925781 241.617188 307.878906 L 256.371094 306.214844 C 256.402344 306.214844 256.433594 306.207031 256.464844 306.207031 C 263.832031 306.207031 269.820312 312.199219 269.820312 319.5625 L 269.820312 340.886719 C 269.820312 348 263.210938 354.238281 255.675781 354.238281 Z M 254.695312 347.984375 L 256.261719 352.566406 C 262.667969 352.257812 268.167969 346.933594 268.167969 340.882812 L 268.167969 319.558594 C 268.167969 313.121094 262.945312 307.878906 256.511719 307.855469 L 242.542969 309.433594 L 242.542969 314.691406 L 256.335938 312.457031 C 256.378906 312.449219 256.421875 312.449219 256.464844 312.449219 C 260.382812 312.449219 263.578125 315.636719 263.578125 319.558594 L 263.578125 340.882812 C 263.578125 344.796875 260.390625 347.984375 256.464844 347.984375 Z M 254.695312 347.984375 " fill-opacity="1" fill-rule="nonzero"/><path fill="#f3ac84" d="M 251.886719 307.03125 C 251.886719 307.03125 251.371094 300.464844 258.871094 301.175781 C 266.371094 301.894531 271.859375 308.613281 277.976562 309.386719 C 291.316406 311.078125 300.085938 311.820312 300.980469 331.808594 C 301.871094 351.800781 294.007812 359.648438 283.078125 360.523438 C 275.222656 361.148438 260 358.429688 261.246094 348.074219 C 257.53125 347.066406 253.976562 341.257812 258.34375 337.023438 C 255.578125 337.4375 251.023438 330.824219 257.238281 326.25 C 253.183594 326.105469 251.167969 318.277344 257.960938 315.625 C 264.753906 312.96875 266.882812 312.597656 266.882812 312.597656 C 265.4375 310.289062 261.703125 307.027344 256.632812 307.027344 L 251.878906 307.027344 Z M 251.886719 307.03125 " fill-opacity="1" fill-rule="nonzero"/><path fill="#231f20" d="M 280.871094 361.429688 C 275.238281 361.429688 267.15625 360.007812 262.996094 355.675781 C 261.089844 353.699219 260.210938 351.332031 260.371094 348.644531 C 258.214844 347.777344 256.359375 345.648438 255.734375 343.234375 C 255.214844 341.222656 255.589844 339.25 256.792969 337.566406 C 255.601562 337.03125 254.472656 335.828125 253.832031 334.273438 C 252.722656 331.589844 253.363281 328.816406 255.53125 326.632812 C 254.15625 325.933594 253.113281 324.445312 252.796875 322.585938 C 252.363281 320.066406 253.382812 316.53125 257.667969 314.855469 C 261.753906 313.261719 264.191406 312.476562 265.496094 312.105469 C 263.953125 310.277344 260.847656 307.863281 256.640625 307.863281 L 251.890625 307.863281 C 251.457031 307.863281 251.097656 307.53125 251.066406 307.101562 C 251.054688 306.976562 250.851562 304.035156 252.886719 302.039062 C 254.277344 300.675781 256.316406 300.109375 258.957031 300.363281 C 263.148438 300.761719 266.628906 302.882812 269.996094 304.9375 C 272.78125 306.632812 275.410156 308.238281 278.089844 308.578125 L 278.8125 308.667969 C 291.636719 310.289062 300.90625 311.457031 301.8125 331.78125 C 302.847656 354.910156 292.234375 360.632812 283.15625 361.355469 C 282.457031 361.410156 281.691406 361.441406 280.878906 361.441406 Z M 258.351562 336.195312 C 258.664062 336.195312 258.949219 336.371094 259.09375 336.65625 C 259.25 336.976562 259.183594 337.367188 258.929688 337.617188 C 256.992188 339.496094 256.996094 341.488281 257.339844 342.824219 C 257.878906 344.902344 259.613281 346.773438 261.472656 347.273438 C 261.871094 347.378906 262.125 347.761719 262.078125 348.167969 C 261.785156 350.621094 262.496094 352.765625 264.195312 354.53125 C 266.496094 356.925781 273.644531 360.445312 283.027344 359.699219 C 288.621094 359.253906 292.917969 356.953125 295.800781 352.859375 C 299.113281 348.164062 300.582031 341.09375 300.167969 331.847656 C 299.320312 312.914062 291.527344 311.929688 278.613281 310.296875 L 277.886719 310.207031 C 274.855469 309.824219 272.078125 308.128906 269.136719 306.339844 C 265.929688 304.382812 262.613281 302.363281 258.804688 302 C 256.679688 301.796875 255.082031 302.207031 254.054688 303.203125 C 253.105469 304.128906 252.824219 305.402344 252.742188 306.203125 L 256.640625 306.203125 C 262.335938 306.203125 266.203125 309.949219 267.589844 312.160156 C 267.734375 312.390625 267.757812 312.679688 267.644531 312.933594 C 267.535156 313.183594 267.304688 313.363281 267.035156 313.414062 C 267.015625 313.414062 264.773438 313.851562 258.269531 316.394531 C 254.914062 317.703125 254.085938 320.308594 254.425781 322.308594 C 254.730469 324.09375 255.902344 325.375 257.277344 325.425781 C 257.628906 325.4375 257.933594 325.667969 258.039062 326.007812 C 258.140625 326.34375 258.019531 326.710938 257.738281 326.917969 C 254.167969 329.546875 254.890625 332.5 255.359375 333.648438 C 256.042969 335.3125 257.421875 336.335938 258.226562 336.210938 C 258.269531 336.207031 258.308594 336.203125 258.351562 336.203125 Z M 258.351562 336.195312 " fill-opacity="1" fill-rule="nonzero"/><path fill="#231f20" d="M 266.882812 313.425781 C 266.527344 313.425781 266.203125 313.199219 266.09375 312.847656 C 265.957031 312.414062 266.199219 311.945312 266.632812 311.8125 C 271.441406 310.300781 277.746094 310.941406 278.015625 310.96875 C 278.464844 311.015625 278.796875 311.421875 278.746094 311.875 C 278.703125 312.328125 278.289062 312.652344 277.839844 312.613281 C 277.777344 312.609375 271.601562 311.984375 267.128906 313.386719 C 267.050781 313.414062 266.964844 313.421875 266.882812 313.421875 Z M 266.882812 313.425781 " fill-opacity="1" fill-rule="nonzero"/><path fill="#231f20" d="M 257.246094 327.074219 C 256.804688 327.074219 256.4375 326.722656 256.421875 326.28125 C 256.402344 325.824219 256.753906 325.4375 257.214844 325.421875 L 279.625 324.476562 C 280.089844 324.460938 280.46875 324.8125 280.488281 325.269531 C 280.503906 325.726562 280.152344 326.113281 279.695312 326.132812 L 257.28125 327.074219 C 257.28125 327.074219 257.257812 327.074219 257.246094 327.074219 Z M 257.246094 327.074219 " fill-opacity="1" fill-rule="nonzero"/><path fill="#231f20" d="M 278.351562 339.050781 C 278.351562 339.050781 278.320312 339.050781 278.304688 339.050781 L 258.300781 337.84375 C 257.84375 337.816406 257.5 337.421875 257.527344 336.96875 C 257.554688 336.515625 257.941406 336.164062 258.398438 336.195312 L 278.402344 337.402344 C 278.859375 337.429688 279.207031 337.824219 279.179688 338.277344 C 279.152344 338.714844 278.789062 339.054688 278.351562 339.054688 Z M 278.351562 339.050781 " fill-opacity="1" fill-rule="nonzero"/><path fill="#231f20" d="M 278.019531 351.238281 C 277.980469 351.238281 277.941406 351.238281 277.902344 351.230469 L 261.132812 348.882812 C 260.679688 348.820312 260.367188 348.402344 260.429688 347.949219 C 260.492188 347.496094 260.914062 347.183594 261.363281 347.25 L 278.132812 349.59375 C 278.585938 349.660156 278.898438 350.074219 278.832031 350.527344 C 278.773438 350.941406 278.421875 351.238281 278.015625 351.238281 Z M 278.019531 351.238281 " fill-opacity="1" fill-rule="nonzero"/><path fill="#e5ddd5" d="M 241.707031 315.664062 L 255.042969 351.167969 C 258.332031 359.925781 251.851562 369.273438 242.492188 369.273438 L 199.445312 369.273438 C 190.175781 369.273438 183.703125 360.09375 186.824219 351.367188 L 197.28125 322.121094 C 197.777344 320.726562 197.773438 319.207031 197.265625 317.816406 C 196.472656 315.648438 194.671875 312.671875 190.582031 311.035156 C 190.582031 311.035156 195.140625 308.8125 198.300781 308.695312 C 201.457031 308.578125 241.714844 308.695312 241.714844 308.695312 L 241.714844 315.664062 Z M 241.707031 315.664062 " fill-opacity="1" fill-rule="nonzero"/><g clip-path="url(#3b73e03a9e)"><path fill="#231f20" d="M 242.492188 370.101562 L 199.445312 370.101562 C 194.757812 370.101562 190.515625 367.90625 187.8125 364.070312 C 185.105469 360.234375 184.460938 355.503906 186.042969 351.089844 L 196.5 321.847656 C 196.9375 320.636719 196.929688 319.304688 196.492188 318.101562 C 195.75 316.0625 194.0625 313.320312 190.277344 311.804688 C 189.972656 311.683594 189.769531 311.394531 189.753906 311.066406 C 189.742188 310.742188 189.921875 310.4375 190.214844 310.292969 C 190.410156 310.199219 194.96875 307.992188 198.261719 307.871094 C 201.398438 307.753906 240.0625 307.867188 241.707031 307.871094 C 242.167969 307.871094 242.535156 308.242188 242.535156 308.699219 L 242.535156 315.519531 L 255.8125 350.882812 C 257.476562 355.316406 256.886719 360.089844 254.1875 363.984375 C 251.492188 367.875 247.222656 370.105469 242.488281 370.105469 Z M 192.5625 311.066406 C 195.761719 312.871094 197.304688 315.507812 198.046875 317.535156 C 198.617188 319.101562 198.621094 320.832031 198.058594 322.402344 L 187.601562 351.644531 C 186.207031 355.550781 186.777344 359.730469 189.164062 363.117188 C 191.554688 366.503906 195.300781 368.449219 199.445312 368.449219 L 242.492188 368.449219 C 246.679688 368.449219 250.449219 366.472656 252.832031 363.035156 C 255.214844 359.59375 255.742188 355.378906 254.269531 351.460938 L 240.933594 315.960938 C 240.898438 315.863281 240.878906 315.769531 240.878906 315.667969 L 240.878906 309.523438 C 235.121094 309.511719 201.179688 309.417969 198.328125 309.523438 C 196.503906 309.589844 194.121094 310.433594 192.5625 311.066406 Z M 192.5625 311.066406 " fill-opacity="1" fill-rule="nonzero"/></g><path fill="#c7ac96" d="M 219.164062 308.695312 L 223.378906 308.695312 L 223.378906 344.890625 L 219.164062 344.890625 Z M 219.164062 308.695312 " fill-opacity="1" fill-rule="nonzero"/><path fill="#e9edee" d="M 200.925781 305.109375 L 241.714844 305.109375 L 241.714844 308.695312 L 200.925781 308.695312 Z M 200.925781 305.109375 " fill-opacity="1" fill-rule="nonzero"/><path fill="#231f20" d="M 241.707031 309.523438 L 200.921875 309.523438 C 200.464844 309.523438 200.09375 309.152344 200.09375 308.695312 L 200.09375 305.109375 C 200.09375 304.652344 200.464844 304.28125 200.921875 304.28125 L 241.707031 304.28125 C 242.167969 304.28125 242.539062 304.652344 242.539062 305.109375 L 242.539062 308.695312 C 242.539062 309.152344 242.167969 309.523438 241.707031 309.523438 Z M 201.753906 307.871094 L 240.882812 307.871094 L 240.882812 305.9375 L 201.753906 305.9375 Z M 201.753906 307.871094 " fill-opacity="1" fill-rule="nonzero"/><path fill="#e9edee" d="M 247.679688 305.109375 L 194.257812 305.109375 C 193.320312 305.109375 192.558594 304.347656 192.558594 303.410156 C 192.558594 302.722656 192.976562 302.09375 193.613281 301.832031 C 211.851562 294.46875 230.082031 294.46875 248.320312 301.832031 C 248.957031 302.09375 249.375 302.71875 249.375 303.410156 C 249.375 304.347656 248.613281 305.109375 247.675781 305.109375 Z M 247.679688 305.109375 " fill-opacity="1" fill-rule="nonzero"/><path fill="#231f20" d="M 247.679688 305.9375 L 194.257812 305.9375 C 192.867188 305.9375 191.734375 304.804688 191.734375 303.414062 C 191.734375 302.378906 192.351562 301.457031 193.308594 301.074219 C 211.660156 293.660156 230.273438 293.660156 248.628906 301.074219 C 249.582031 301.457031 250.199219 302.378906 250.199219 303.414062 C 250.199219 304.804688 249.066406 305.9375 247.675781 305.9375 Z M 220.972656 297.167969 C 211.9375 297.167969 202.902344 298.980469 193.933594 302.605469 C 193.609375 302.734375 193.394531 303.054688 193.394531 303.410156 C 193.394531 303.890625 193.78125 304.28125 194.261719 304.28125 L 247.683594 304.28125 C 248.164062 304.28125 248.554688 303.890625 248.554688 303.410156 C 248.554688 303.054688 248.335938 302.730469 248.015625 302.605469 C 239.042969 298.980469 230.011719 297.167969 220.976562 297.167969 Z M 220.972656 297.167969 " fill-opacity="1" fill-rule="nonzero"/><path fill="#f5f3f0" d="M 250.5 254.164062 L 241.714844 269.972656 L 197.882812 269.972656 L 191.113281 254.164062 C 191.113281 254.164062 200.734375 256.101562 207.421875 255.089844 C 214.105469 254.082031 216.964844 251.90625 224.589844 252.714844 C 232.21875 253.515625 233.160156 255.480469 240.15625 254.925781 C 247.148438 254.367188 250.5 254.164062 250.5 254.164062 Z M 250.5 254.164062 " fill-opacity="1" fill-rule="nonzero"/><path fill="#231f20" d="M 241.707031 270.800781 L 197.878906 270.800781 C 197.546875 270.800781 197.25 270.601562 197.117188 270.300781 L 190.347656 254.488281 C 190.226562 254.207031 190.269531 253.882812 190.464844 253.640625 C 190.660156 253.402344 190.96875 253.292969 191.273438 253.351562 C 191.367188 253.371094 200.832031 255.25 207.289062 254.277344 C 209.507812 253.941406 211.289062 253.480469 213.011719 253.03125 C 216.335938 252.167969 219.476562 251.347656 224.667969 251.894531 C 227.898438 252.234375 229.945312 252.777344 231.75 253.257812 C 234.195312 253.90625 236.125 254.417969 240.078125 254.105469 C 247 253.550781 250.402344 253.347656 250.441406 253.34375 C 250.738281 253.324219 251.027344 253.476562 251.1875 253.730469 C 251.347656 253.980469 251.355469 254.308594 251.210938 254.570312 L 242.425781 270.382812 C 242.28125 270.644531 242.003906 270.808594 241.699219 270.808594 Z M 198.425781 269.148438 L 241.222656 269.148438 L 249.039062 255.085938 C 247.421875 255.195312 244.496094 255.402344 240.222656 255.75 C 235.992188 256.082031 233.835938 255.511719 231.335938 254.851562 C 229.589844 254.390625 227.609375 253.863281 224.503906 253.539062 C 219.613281 253.023438 216.75 253.769531 213.4375 254.628906 C 211.675781 255.085938 209.847656 255.5625 207.542969 255.910156 C 202.320312 256.699219 195.492188 255.757812 192.476562 255.25 Z M 198.425781 269.148438 " fill-opacity="1" fill-rule="nonzero"/><path fill="#eef1f2" d="M 247.335938 266.816406 C 247.335938 266.816406 258.539062 265.625 258.125 274.3125 C 257.53125 286.710938 236.621094 289.851562 236.621094 289.851562 L 238.976562 284.78125 C 238.976562 284.78125 251.359375 284.636719 253.492188 275.144531 C 254.808594 269.304688 245.722656 270.285156 245.722656 270.285156 Z M 247.335938 266.816406 " fill-opacity="1" fill-rule="nonzero"/><path fill="#231f20" d="M 236.625 290.671875 C 236.367188 290.671875 236.121094 290.546875 235.964844 290.339844 C 235.78125 290.09375 235.746094 289.773438 235.878906 289.496094 L 238.234375 284.429688 C 238.371094 284.140625 238.65625 283.953125 238.972656 283.949219 C 239.089844 283.949219 250.730469 283.691406 252.691406 274.960938 C 252.925781 273.90625 252.78125 273.097656 252.246094 272.496094 C 250.855469 270.9375 247.132812 270.960938 245.8125 271.105469 C 245.515625 271.136719 245.226562 271.007812 245.050781 270.765625 C 244.878906 270.523438 244.847656 270.210938 244.976562 269.9375 L 246.589844 266.46875 C 246.710938 266.207031 246.960938 266.023438 247.25 265.992188 C 247.503906 265.964844 253.496094 265.367188 256.832031 268.511719 C 258.359375 269.945312 259.070312 271.910156 258.953125 274.347656 C 258.695312 279.75 254.730469 284.292969 247.484375 287.480469 C 242.144531 289.832031 236.964844 290.628906 236.746094 290.660156 C 236.707031 290.664062 236.667969 290.671875 236.625 290.671875 Z M 239.519531 285.578125 L 238.050781 288.730469 C 242.800781 287.722656 256.835938 283.929688 257.300781 274.265625 C 257.390625 272.332031 256.851562 270.800781 255.695312 269.710938 C 253.382812 267.53125 249.257812 267.535156 247.878906 267.605469 L 247.046875 269.394531 C 248.863281 269.382812 251.917969 269.652344 253.476562 271.394531 C 254.382812 272.410156 254.65625 273.730469 254.300781 275.320312 C 252.316406 284.167969 241.984375 285.40625 239.515625 285.578125 Z M 239.519531 285.578125 " fill-opacity="1" fill-rule="nonzero"/><path fill="#eef1f2" d="M 190.496094 262.429688 L 249.378906 262.429688 L 231.570312 300.710938 C 223.851562 302.152344 216.207031 302.179688 208.628906 300.710938 Z M 190.496094 262.429688 " fill-opacity="1" fill-rule="nonzero"/><path fill="#231f20" d="M 219.992188 302.625 C 216.105469 302.625 212.257812 302.257812 208.472656 301.527344 C 208.214844 301.476562 207.996094 301.304688 207.882812 301.070312 L 189.75 262.785156 C 189.628906 262.527344 189.644531 262.230469 189.800781 261.988281 C 189.949219 261.75 190.214844 261.605469 190.496094 261.605469 L 249.378906 261.605469 C 249.660156 261.605469 249.921875 261.75 250.078125 261.984375 C 250.230469 262.226562 250.25 262.523438 250.132812 262.777344 L 232.320312 301.058594 C 232.207031 301.300781 231.984375 301.476562 231.722656 301.519531 C 227.792969 302.253906 223.875 302.621094 219.992188 302.621094 Z M 209.195312 299.980469 C 216.300781 301.304688 223.632812 301.304688 231 299.980469 L 248.082031 263.261719 L 191.808594 263.261719 L 209.199219 299.984375 Z M 209.195312 299.980469 " fill-opacity="1" fill-rule="nonzero"/><path fill="#5b382c" d="M 240.664062 364.855469 L 200.785156 364.855469 C 192.957031 364.855469 187.605469 356.949219 190.53125 349.683594 L 194.839844 338.957031 L 246.617188 338.957031 L 250.925781 349.683594 C 253.84375 356.949219 248.488281 364.855469 240.65625 364.855469 Z M 240.664062 364.855469 " fill-opacity="1" fill-rule="nonzero"/><path fill="#f4f1ed" d="M 209 319.257812 C 209 319.257812 206.222656 329.59375 203.921875 338.957031 L 197.667969 338.957031 C 200.722656 329.773438 204.824219 317.933594 204.824219 317.933594 C 204.824219 317.933594 209.859375 316.027344 208.996094 319.257812 Z M 209 319.257812 " fill-opacity="1" fill-rule="nonzero"/><path fill="#b1a39a" d="M 200.925781 353.363281 C 200.9375 357.363281 203.300781 361.175781 203.300781 361.175781 C 203.300781 361.175781 198.261719 363.074219 196.359375 359.648438 C 194.457031 356.226562 193.042969 354.097656 194.652344 348.382812 C 195.152344 346.625 196.304688 343.050781 197.675781 338.957031 L 203.925781 338.957031 C 202.304688 345.574219 200.921875 351.710938 200.925781 353.363281 Z M 200.925781 353.363281 " fill-opacity="1" fill-rule="nonzero"/><path fill="#231f20" d="M 248.476562 63.265625 C 248.082031 63.265625 247.734375 62.984375 247.667969 62.585938 C 247.585938 62.136719 247.882812 61.707031 248.332031 61.625 C 252.523438 60.871094 255.679688 60.0625 258.265625 59.070312 C 258.691406 58.90625 259.171875 59.121094 259.332031 59.546875 C 259.496094 59.972656 259.285156 60.453125 258.859375 60.613281 C 256.171875 61.648438 252.921875 62.484375 248.628906 63.253906 C 248.578125 63.265625 248.527344 63.269531 248.480469 63.269531 Z M 248.476562 63.265625 " fill-opacity="1" fill-rule="nonzero"/><path fill="#b7c7cb" d="M 145.746094 187.03125 C 144.792969 188.949219 142.5 189 139.078125 187.953125 C 137.984375 187.617188 136.8125 187.132812 135.59375 186.480469 C 134.09375 185.675781 132.625 184.875 131.367188 184.066406 C 128.386719 182.15625 126.789062 179.417969 128.082031 177.894531 C 129.375 176.367188 136.328125 178.941406 138.710938 180.253906 C 141.09375 181.558594 146.703125 185.117188 145.75 187.03125 Z M 145.746094 187.03125 " fill-opacity="1" fill-rule="nonzero"/><path fill="#b7c7cb" d="M 139.078125 187.953125 L 136.414062 193.058594 C 133.472656 192.410156 131.050781 191.0625 128.96875 189.207031 L 131.363281 184.066406 C 132.625 184.875 134.089844 185.675781 135.589844 186.480469 C 136.808594 187.132812 137.980469 187.617188 139.074219 187.953125 Z M 139.078125 187.953125 " fill-opacity="1" fill-rule="nonzero"/><path fill="#231f20" d="M 142.730469 189.457031 C 141.425781 189.457031 140.023438 189.105469 138.839844 188.746094 C 137.644531 188.378906 136.421875 187.859375 135.203125 187.214844 C 133.75 186.429688 132.21875 185.601562 130.917969 184.769531 C 128.621094 183.296875 127.097656 181.390625 126.839844 179.671875 C 126.710938 178.789062 126.917969 177.992188 127.453125 177.367188 C 129.449219 175.007812 137.90625 178.871094 139.109375 179.539062 C 147.121094 183.929688 146.9375 186.503906 146.492188 187.410156 C 145.714844 188.964844 144.289062 189.460938 142.730469 189.460938 Z M 129.53125 178.222656 C 129.121094 178.222656 128.835938 178.289062 128.710938 178.429688 C 128.488281 178.6875 128.414062 179.011719 128.476562 179.417969 C 128.65625 180.632812 129.964844 182.1875 131.8125 183.367188 C 133.0625 184.171875 134.554688 184.984375 135.984375 185.75 C 137.105469 186.347656 138.230469 186.824219 139.316406 187.160156 C 143.5 188.441406 144.554688 187.566406 145.003906 186.660156 C 145.367188 185.933594 142.519531 183.289062 138.308594 180.976562 C 135.617188 179.496094 131.359375 178.222656 129.527344 178.222656 Z M 145.746094 187.03125 Z M 145.746094 187.03125 " fill-opacity="1" fill-rule="nonzero"/><path fill="#231f20" d="M 136.414062 193.890625 C 136.355469 193.890625 136.296875 193.882812 136.234375 193.871094 C 133.292969 193.21875 130.738281 191.898438 128.417969 189.828125 C 128.144531 189.582031 128.0625 189.191406 128.21875 188.863281 L 130.609375 183.722656 C 130.710938 183.503906 130.898438 183.339844 131.132812 183.277344 C 131.363281 183.210938 131.605469 183.246094 131.804688 183.378906 C 133.058594 184.179688 134.550781 184.996094 135.980469 185.761719 C 137.101562 186.359375 138.226562 186.832031 139.3125 187.167969 C 139.550781 187.242188 139.738281 187.414062 139.835938 187.640625 C 139.929688 187.867188 139.921875 188.125 139.804688 188.339844 L 137.140625 193.449219 C 136.992188 193.726562 136.707031 193.894531 136.40625 193.894531 Z M 129.984375 188.992188 C 131.796875 190.5 133.769531 191.523438 135.980469 192.109375 L 137.894531 188.433594 C 137.003906 188.105469 136.101562 187.699219 135.199219 187.21875 C 134.035156 186.59375 132.820312 185.9375 131.714844 185.269531 L 129.980469 189.003906 Z M 129.984375 188.992188 " fill-opacity="1" fill-rule="nonzero"/></svg>