<svg xmlns="http://www.w3.org/2000/svg" xmlns:xlink="http://www.w3.org/1999/xlink" width="500" zoomAndPan="magnify" viewBox="0 0 375 374.999991" height="500" preserveAspectRatio="xMidYMid meet" version="1.0"><defs><clipPath id="3881d2381f"><path d="M 4.382812 83 L 121 83 L 121 308 L 4.382812 308 Z M 4.382812 83 " clip-rule="nonzero"/></clipPath><clipPath id="6f3ed178e9"><path d="M 51 37.5 L 174 37.5 L 174 164 L 51 164 Z M 51 37.5 " clip-rule="nonzero"/></clipPath><clipPath id="acb9158ad6"><path d="M 165 77 L 370.382812 77 L 370.382812 334.5 L 165 334.5 Z M 165 77 " clip-rule="nonzero"/></clipPath></defs><g clip-path="url(#3881d2381f)"><path fill="#603b17" d="M 120.007812 297.726562 C 122.929688 303.351562 117.042969 309.476562 111.300781 306.800781 C 87.902344 295.949219 59.109375 277.535156 37.050781 246.339844 C -4.71875 187.28125 1.359375 111.648438 12.816406 89.636719 C 17.867188 79.945312 32.316406 81.90625 34.230469 92.675781 C 37.074219 108.699219 41.535156 120.8125 45.09375 127.65625 C 51.242188 139.53125 59.683594 149.6875 59.683594 149.6875 C 60.773438 150.988281 61.984375 152.402344 63.375 153.90625 C 69.640625 160.730469 75.164062 165.144531 78.519531 167.789062 C 84.34375 172.382812 90.199219 176.246094 95.246094 179.308594 C 100.820312 182.679688 103.921875 189.078125 102.9375 195.53125 C 100.75 209.886719 100.398438 224.515625 102.019531 239.101562 C 104.519531 261.6875 111.460938 281.292969 120.007812 297.726562 Z M 120.007812 297.726562 " fill-opacity="1" fill-rule="nonzero"/></g><g clip-path="url(#6f3ed178e9)"><path fill="#603b17" d="M 170.210938 79.613281 C 146.449219 102.003906 128.453125 128.527344 117.214844 157.003906 C 114.988281 162.660156 108.15625 164.859375 103.117188 161.46875 C 99.269531 158.875 95.992188 156.378906 93.292969 154.160156 C 90.753906 152.078125 87.476562 149.324219 83.757812 145.609375 C 81.238281 143.085938 79.265625 140.875 76.957031 138.167969 C 72.726562 133.222656 66.589844 125.710938 63.765625 121.660156 C 48.125 99.257812 51.363281 77.089844 51.363281 77.089844 C 51.90625 73.382812 54.738281 56.878906 67.625 45.542969 C 67.714844 45.460938 67.847656 45.347656 68 45.21875 C 90.136719 26.148438 140.523438 46.703125 165.011719 60.683594 C 166.230469 61.382812 167.410156 62.078125 168.539062 62.753906 C 174.574219 66.410156 175.351562 74.769531 170.210938 79.613281 Z M 170.210938 79.613281 " fill-opacity="1" fill-rule="nonzero"/></g><path fill="#8b5f3d" d="M 200.875 278.898438 C 187.332031 294.558594 172.40625 302.5625 164.558594 306.550781 C 161.878906 307.921875 159.144531 309.226562 156.363281 310.445312 C 149.824219 313.335938 142.074219 311.558594 137.742188 305.863281 C 106.03125 264.191406 108.085938 193.371094 146.691406 132.171875 C 182.828125 74.878906 240.308594 42.9375 289.484375 47.945312 C 300.859375 49.105469 304.539062 63.976562 294.8125 70.003906 C 280.351562 78.96875 270.328125 87.992188 265.046875 94.101562 C 255.886719 104.699219 249.304688 116.855469 249.296875 116.855469 C 246.242188 122.488281 242.503906 130.332031 239.007812 142.214844 C 233.957031 159.539062 232.398438 176.753906 230.632812 193.058594 C 227.992188 217.972656 225.707031 230.300781 222.542969 239.605469 C 219.617188 248.117188 214.226562 263.441406 200.875 278.898438 Z M 200.875 278.898438 " fill-opacity="1" fill-rule="nonzero"/><g clip-path="url(#acb9158ad6)"><path fill="#8b5f3d" d="M 339.386719 249.691406 C 296.304688 317.988281 222.855469 350.253906 169.335938 326.8125 C 164.707031 324.78125 164.667969 318.320312 169.242188 316.203125 C 169.285156 316.179688 169.3125 316.171875 169.355469 316.152344 C 177.898438 312.144531 195.675781 303.511719 212.273438 285.722656 C 229.304688 267.480469 236.417969 248.863281 239.722656 240 C 245.316406 224.917969 247.320312 212.257812 250.503906 189.582031 C 252.832031 173.179688 254.980469 157.410156 259.746094 143.183594 C 261.519531 137.957031 264.078125 131.011719 268.753906 123.085938 C 270.488281 120.117188 274.839844 113.089844 281.703125 105.730469 C 294.5625 91.960938 308.40625 85.195312 317.730469 81.148438 C 318.324219 80.894531 318.917969 80.632812 319.511719 80.390625 C 335.476562 73.75 353.816406 81.320312 360.597656 97.25 C 378.542969 139.289062 372.035156 197.921875 339.386719 249.691406 Z M 339.386719 249.691406 " fill-opacity="1" fill-rule="nonzero"/></g></svg>