<svg xmlns="http://www.w3.org/2000/svg" xmlns:xlink="http://www.w3.org/1999/xlink" width="500" zoomAndPan="magnify" viewBox="0 0 375 374.999991" height="500" preserveAspectRatio="xMidYMid meet" version="1.0"><defs><clipPath id="93fd6c6487"><path d="M 4.652344 37.5 L 370.652344 37.5 L 370.652344 354 L 4.652344 354 Z M 4.652344 37.5 " clip-rule="nonzero"/></clipPath></defs><g clip-path="url(#93fd6c6487)"><path fill="#090909" d="M 23.472656 137.125 C 11.316406 118.835938 10.828125 112.25 21.074219 103.308594 C 26.320312 98.71875 32.417969 96.074219 39.652344 97.011719 C 47.050781 97.984375 50.667969 104.082031 55.222656 109 C 56.359375 107.535156 55.46875 106.519531 55.34375 105.585938 C 53.882812 95.871094 56.402344 90.671875 65.386719 86.769531 C 69.003906 85.183594 70.507812 83.679688 68.230469 80.023438 C 62.214844 70.269531 65.34375 61.734375 72.296875 54.132812 C 80.386719 45.234375 90.347656 39.257812 102.503906 37.875 C 113.804688 36.578125 120.675781 43.039062 120.550781 54.417969 C 120.511719 59.90625 118.480469 65.1875 119.046875 70.960938 C 121.488281 71.40625 123.15625 69.699219 125.066406 68.96875 C 136.691406 64.742188 145.066406 71.367188 143.359375 83.515625 C 143.15625 84.941406 142.871094 86.402344 142.425781 87.785156 C 141.40625 90.792969 142.015625 92.539062 145.472656 93.148438 C 149.171875 93.757812 152.464844 95.546875 154.335938 98.960938 C 155.757812 101.480469 157.058594 100.546875 158.480469 99.207031 C 160.351562 97.457031 162.140625 95.628906 164.050781 93.921875 C 173.644531 85.507812 186.734375 87.335938 193.28125 98.230469 C 194.132812 99.652344 194.949219 99.816406 196.25 99.855469 C 209.054688 100.261719 219.949219 105.21875 229.503906 114.082031 C 230.601562 110.789062 231.371094 107.660156 232.675781 104.773438 C 236.007812 97.335938 241.375 94.164062 249.339844 95.546875 C 252.351562 96.074219 253 94.9375 254.097656 92.824219 C 257.269531 86.769531 261.660156 85.265625 267.675781 88.761719 C 271.171875 90.792969 271.945312 89.53125 272.675781 86.523438 C 273.773438 81.890625 275.359375 77.421875 278.246094 73.558594 C 285.359375 64.132812 295.6875 63.320312 303.734375 71.773438 C 305.644531 73.761719 306.539062 73.113281 308.003906 71.648438 C 313.167969 66.488281 319.671875 64.292969 326.703125 63.523438 C 335.769531 62.546875 344.226562 64.007812 349.308594 72.464844 C 354.714844 81.527344 354.0625 90.996094 348.65625 100.019531 C 347.273438 102.335938 345.363281 104.40625 343.574219 106.441406 C 342.234375 107.941406 342.601562 108.632812 344.144531 109.773438 C 357.4375 119.484375 357.4375 125.542969 344.46875 136.3125 C 343.777344 136.878906 343.007812 137.449219 343.289062 138.914062 C 345.933594 139.726562 348.332031 137.9375 350.851562 137.613281 C 365.121094 135.90625 373.699219 145.945312 369.632812 159.722656 C 367.886719 165.574219 364.390625 170.125 359.796875 173.90625 C 356.828125 176.34375 353.738281 178.621094 350.566406 180.773438 C 348.292969 182.316406 347.234375 183.253906 350 185.773438 C 355.285156 190.691406 356.460938 197.394531 354.59375 204.019531 C 344.347656 240.476562 330.402344 275.183594 305.644531 304.609375 C 299.34375 312.085938 291.660156 318.019531 283.042969 322.613281 C 280.320312 324.078125 278.328125 325.5 277.921875 328.953125 C 276.742188 338.464844 270.726562 343.097656 261.660156 345.535156 C 231.046875 353.785156 199.988281 355.207031 168.605469 352.648438 C 150.921875 351.226562 133.480469 348.257812 116.324219 343.421875 C 106.609375 340.699219 100.105469 335.78125 97.988281 325.621094 C 97.542969 323.425781 97.054688 321.148438 94.332031 319.972656 C 79.371094 313.507812 68.515625 302.25 59.492188 289.125 C 40.546875 261.570312 28.351562 231.089844 20.953125 198.613281 C 19.164062 190.769531 21.441406 183.902344 27.171875 178.050781 C 31.398438 173.78125 31.15625 172.929688 25.707031 170.410156 C 22.253906 168.785156 18.636719 167.441406 15.21875 165.734375 C 7.457031 161.914062 3.757812 155.777344 4.855469 148.828125 C 5.871094 142.246094 10.464844 138.789062 19.773438 137.691406 C 20.832031 137.570312 21.886719 137.367188 23.472656 137.125 Z M 23.472656 137.125 " fill-opacity="1" fill-rule="nonzero"/></g><path fill="#d5d6d6" d="M 33.351562 192.964844 C 30.34375 196.257812 32.660156 198.25 35.261719 199.875 C 40.546875 203.25 46.402344 205.28125 52.335938 207.191406 C 82.296875 216.699219 113.234375 220.96875 144.457031 223.449219 C 182.0625 226.414062 219.746094 227.347656 257.390625 224.625 C 279.832031 223.039062 302.148438 220.441406 323.816406 213.855469 C 326.785156 212.960938 329.753906 211.988281 332.597656 210.808594 C 344.46875 206.011719 347.316406 200.484375 344.183594 188.375 C 347.804688 190.285156 349.023438 191.867188 349.671875 195.769531 C 350.324219 199.632812 349.835938 203.410156 348.738281 207.148438 C 340.648438 234.785156 329.304688 261 313.859375 285.386719 C 297.960938 310.460938 275.5625 325.09375 245.925781 329.5625 C 201.167969 336.308594 157.058594 334.929688 113.398438 322.207031 C 91.484375 315.828125 74.695312 302.863281 62.214844 284.085938 C 44.855469 257.910156 33.71875 229.097656 26.15625 198.777344 C 25.058594 194.347656 24.9375 189.835938 27.78125 185.652344 C 29.773438 187.804688 31.5625 189.753906 33.390625 191.746094 C 33.757812 192.03125 33.839844 192.316406 33.71875 192.558594 C 33.59375 192.804688 33.472656 192.964844 33.351562 192.964844 Z M 33.351562 192.964844 " fill-opacity="1" fill-rule="nonzero"/><path fill="#84b950" d="M 64.574219 156.957031 C 58.476562 155.25 52.335938 153.503906 46.238281 151.835938 C 44.53125 151.390625 42.296875 150.292969 41.480469 152.648438 C 40.546875 155.332031 43.269531 155.292969 44.855469 155.777344 C 52.378906 158.09375 59.859375 160.453125 67.417969 162.566406 C 70.589844 163.460938 72.90625 165.207031 74.695312 167.890625 C 78.640625 173.78125 82.746094 179.59375 87.460938 186.464844 C 79.859375 183.863281 73.4375 181.421875 66.851562 179.472656 C 64.65625 178.824219 61.199219 175.367188 59.980469 179.230469 C 58.921875 182.5625 63.515625 182.601562 65.832031 183.457031 C 72.664062 186.058594 79.574219 188.453125 86.527344 190.648438 C 89.898438 191.707031 92.21875 193.535156 93.84375 196.664062 C 96.648438 202.109375 99.699219 207.433594 103.03125 213.570312 C 86.6875 210.847656 71.566406 207.71875 56.6875 203.371094 C 54.613281 202.761719 53.273438 201.785156 52.824219 199.386719 C 51.847656 194.429688 48.554688 191.503906 43.757812 190.121094 C 42.011719 189.59375 40.304688 188.984375 38.597656 188.25 C 32.78125 185.773438 31.929688 183.78125 34.125 177.804688 C 36.441406 171.464844 35.382812 169.027344 29.082031 166.222656 C 24.773438 164.273438 20.261719 162.648438 16.113281 160.371094 C 11.886719 158.054688 8.878906 154.398438 9.976562 149.195312 C 11.113281 143.871094 15.832031 143.21875 20.21875 142.652344 C 23.230469 142.285156 26.804688 143.140625 28.269531 139.398438 C 29.691406 135.78125 27.253906 133.183594 25.300781 130.539062 C 24.855469 129.972656 24.367188 129.402344 23.878906 128.875 C 19.9375 124.484375 16.722656 119.851562 19.53125 113.632812 C 22.539062 106.96875 27.945312 103.148438 35.019531 101.886719 C 40.019531 100.992188 44.125 103.105469 46.96875 107.050781 C 51.972656 114.039062 57.824219 116.476562 66.320312 113.265625 C 72.09375 111.074219 75.835938 113.347656 78.882812 118.996094 C 82.296875 125.339844 84.085938 132.207031 85.023438 139.320312 C 85.875 145.984375 88.394531 147.488281 94.65625 145.332031 C 100.957031 143.179688 103.964844 145.128906 104.617188 151.753906 C 104.777344 153.378906 104.777344 155.046875 104.777344 156.671875 C 104.777344 160.289062 106.40625 162.851562 110.144531 163.011719 C 118.195312 163.417969 120.144531 170.652344 118.277344 176.585938 C 117.054688 180.40625 115.835938 184.226562 114.535156 188.007812 C 113.234375 191.707031 113.558594 194.957031 115.917969 198.332031 C 118.886719 202.558594 117.992188 209.871094 114.375 213.53125 C 112.054688 215.847656 109.699219 215.480469 108.113281 212.675781 C 104.046875 205.523438 100.023438 198.371094 96.242188 191.097656 C 94.332031 187.4375 95.265625 183.171875 94.414062 179.269531 C 94.007812 177.480469 95.0625 173.984375 91.648438 174.351562 C 88.394531 174.675781 90.304688 177.847656 89.777344 180.042969 C 85.183594 173.945312 80.507812 168.175781 76.363281 162.078125 C 73.800781 158.339844 74.738281 153.585938 74.167969 149.277344 C 73.679688 145.660156 73.515625 142 73.152344 138.382812 C 73.027344 137.285156 72.785156 136.066406 71.363281 136.027344 C 69.53125 135.984375 69.410156 137.449219 69.410156 138.710938 C 69.371094 143.015625 69.410156 147.285156 69.410156 152.445312 C 61.847656 143.992188 54.898438 136.109375 47.824219 128.304688 C 45.261719 125.460938 42.539062 122.738281 39.816406 120.054688 C 38.757812 119.039062 37.296875 118.105469 35.953125 119.527344 C 34.691406 120.867188 35.464844 122.25 36.523438 123.386719 C 40.382812 127.53125 44.328125 131.597656 48.109375 135.824219 C 53.921875 142.367188 59.574219 148.992188 65.304688 155.617188 C 65.0625 156.023438 64.859375 156.429688 64.613281 156.835938 Z M 64.574219 156.957031 " fill-opacity="1" fill-rule="nonzero"/><path fill="#82b950" d="M 110.429688 154.964844 C 109.65625 151.265625 109.738281 147.691406 107.707031 145.089844 C 103.804688 140.132812 105.308594 135.824219 108.234375 131.230469 C 111.894531 125.542969 115.347656 119.730469 118.804688 113.957031 C 119.578125 112.699219 121.203125 111.03125 119.007812 109.773438 C 117.054688 108.632812 116.082031 110.339844 115.1875 111.761719 C 111.160156 118.265625 107.097656 124.726562 102.664062 131.839844 C 99.496094 122.777344 98.113281 114 97.257812 105.179688 C 96.242188 94.652344 95.550781 84.046875 96.484375 73.4375 C 96.648438 71.691406 97.257812 69.332031 94.738281 68.96875 C 91.8125 68.5625 91.8125 71.164062 91.730469 73.113281 C 91.199219 88.636719 91.324219 104.121094 94.65625 120.015625 C 91.890625 119.160156 90.917969 116.84375 89.085938 115.664062 C 86.730469 114.082031 85.792969 108.429688 81.242188 112.699219 C 81.160156 112.78125 80.875 112.699219 80.792969 112.617188 C 75.507812 107.210938 69.289062 107.050781 62.5 109.121094 C 61.160156 109.527344 60.875 108.105469 60.425781 107.089844 C 57.988281 101.117188 60.0625 95.304688 65.792969 92.214844 C 66.929688 91.605469 68.109375 91.117188 69.25 90.546875 C 74.453125 87.824219 75.425781 85.265625 73.394531 79.820312 C 68.71875 67.382812 70.144531 61.816406 80.347656 53.238281 C 86.484375 48.117188 93.476562 44.542969 101.324219 43.039062 C 110.878906 41.210938 116.203125 46.003906 115.511719 55.71875 C 115.226562 59.703125 114.292969 63.644531 113.886719 67.625 C 113.113281 74.941406 117.015625 77.867188 123.804688 75.226562 C 125.351562 74.617188 126.8125 73.84375 128.359375 73.398438 C 134.820312 71.488281 139.171875 75.1875 138.5625 81.933594 C 138.480469 83.03125 138.113281 84.085938 137.871094 85.144531 C 135.757812 94.898438 135.757812 94.980469 145.230469 98.230469 C 150.027344 99.855469 151.652344 103.351562 151.488281 107.941406 C 151.410156 110.097656 150.878906 112.292969 150.472656 114.40625 C 148.765625 123.019531 148.804688 123.144531 156.207031 128.183594 C 162.628906 132.570312 164.945312 143.382812 160.960938 149.84375 C 159.90625 151.59375 158.886719 151.390625 157.382812 150.738281 C 141.125 143.625 125.675781 146.390625 110.347656 155.007812 Z M 110.429688 154.964844 " fill-opacity="1" fill-rule="nonzero"/><path fill="#82b84f" d="M 301.582031 143.910156 C 306.867188 143.464844 311.90625 143.015625 316.90625 142.53125 C 318.535156 142.367188 320.566406 142.164062 320.445312 140.007812 C 320.320312 137.734375 318.289062 137.894531 316.664062 137.976562 C 310.644531 138.34375 304.628906 138.789062 298.613281 139.195312 C 294.464844 139.480469 293.570312 137.9375 295.890625 134.480469 C 300.441406 127.65625 305.035156 120.828125 309.507812 113.917969 C 311.054688 111.519531 313.046875 110.339844 315.890625 110.625 C 316.785156 110.707031 317.71875 110.667969 318.613281 110.542969 C 321.296875 110.054688 325.972656 111.601562 326.054688 108.1875 C 326.09375 104.082031 321.460938 106.601562 318.980469 105.953125 C 318.328125 105.789062 317.640625 105.789062 315.808594 105.585938 C 319.347656 101.480469 322.234375 98.109375 325.117188 94.695312 C 326.175781 93.433594 327.679688 91.972656 326.214844 90.425781 C 324.386719 88.476562 322.921875 90.265625 321.664062 91.566406 C 314.589844 99.003906 308.207031 107.007812 302.433594 115.460938 C 301.335938 117.085938 300.15625 118.671875 298.246094 121.355469 C 296.945312 113.878906 295.808594 107.535156 294.710938 101.238281 C 294.425781 99.613281 294.140625 97.984375 293.777344 96.402344 C 293.449219 94.980469 293.289062 93.148438 291.296875 93.394531 C 288.976562 93.71875 289.386719 95.667969 289.628906 97.296875 C 291.011719 106.113281 292.394531 114.972656 293.855469 123.792969 C 295.078125 131.070312 290.441406 135.214844 283.570312 132.855469 C 277.269531 130.660156 270.726562 129.566406 264.140625 130.417969 C 259.34375 131.027344 256.496094 130.175781 255.96875 124.769531 C 255.765625 122.941406 255.359375 119.527344 252.269531 120.664062 C 249.382812 121.722656 251.210938 124.445312 251.820312 126.355469 C 252.796875 129.441406 253.691406 131.515625 249.503906 133.628906 C 244.339844 136.230469 242.347656 135.09375 240.5625 130.09375 C 238.648438 124.769531 234.015625 120.664062 235.074219 113.957031 C 236.699219 103.390625 240.96875 99.488281 251.332031 101.195312 C 254.871094 101.765625 256.457031 99.9375 257.472656 97.171875 C 259.382812 92.011719 262.066406 90.914062 267.027344 94.042969 C 271.742188 97.050781 274.628906 95.628906 276.578125 90.183594 C 278.003906 86.242188 278.855469 82.09375 281.050781 78.4375 C 286.417969 69.375 294.222656 68.519531 301.132812 76.363281 C 304.183594 79.820312 307.191406 79.289062 310.035156 76.363281 C 314.425781 71.851562 319.753906 69.496094 325.933594 68.519531 C 333.210938 67.382812 340.28125 67.789062 344.671875 74.332031 C 349.308594 81.199219 349.023438 88.882812 345.039062 96.15625 C 343.738281 98.515625 341.707031 100.503906 339.957031 102.578125 C 335.769531 107.496094 336.257812 110.789062 341.707031 114 C 350.894531 119.402344 351.300781 124.402344 343.007812 131.070312 C 339.792969 133.628906 336.542969 136.027344 337.964844 140.984375 C 338.414062 142.488281 336.988281 143.21875 336.054688 144.035156 C 334.550781 145.375 333.046875 146.675781 331.542969 148.015625 C 329.507812 149.84375 327.761719 152.730469 325.402344 153.300781 C 322.4375 154.03125 322.03125 149.804688 319.957031 148.21875 C 316.054688 145.171875 311.949219 144.804688 307.597656 146.714844 C 304.546875 148.058594 302.882812 147.039062 301.621094 143.871094 Z M 301.582031 143.910156 " fill-opacity="1" fill-rule="nonzero"/><path fill="#82b94c" d="M 306.214844 212.636719 C 319.628906 198.820312 330.445312 183.171875 341.746094 167.929688 C 342.601562 166.753906 343.414062 165.53125 344.308594 164.355469 C 345.242188 163.054688 345.8125 161.671875 344.308594 160.492188 C 342.640625 159.234375 341.664062 160.574219 340.769531 161.753906 C 336.21875 167.726562 331.664062 173.660156 327.109375 179.59375 C 322.273438 185.894531 317.761719 192.4375 311.214844 199.0625 C 311.214844 190.203125 311.257812 182.644531 311.214844 175.042969 C 311.214844 173.214844 311.867188 170.410156 308.777344 170.53125 C 306.175781 170.652344 306.90625 173.214844 306.867188 174.921875 C 306.824219 182.398438 306.867188 189.917969 306.867188 197.394531 C 306.867188 205.402344 299.34375 214.628906 291.457031 215.726562 C 282.960938 216.945312 274.382812 217.636719 265.886719 218.734375 C 263.328125 219.058594 262.636719 218.164062 262.839844 215.808594 C 263.691406 205.972656 264.75 196.136719 268.816406 187.03125 C 272.515625 178.742188 275.808594 177.523438 284.507812 180.449219 C 288.816406 181.910156 291.660156 179.675781 293.492188 176.179688 C 295.972656 171.507812 298.003906 166.628906 300.320312 161.875 C 301.945312 158.582031 303.816406 155.414062 306.582031 152.933594 C 311.257812 148.746094 315.605469 149.480469 318.695312 154.882812 C 321.460938 159.679688 323.816406 160.453125 328.25 157.28125 C 331.5 154.964844 334.347656 152.082031 337.316406 149.355469 C 342.398438 144.765625 348.128906 141.960938 355.160156 142.40625 C 362.640625 142.855469 366.789062 147.894531 365.609375 155.332031 C 364.472656 162.28125 360.160156 167.160156 354.878906 171.34375 C 351.175781 174.3125 347.234375 176.992188 343.535156 179.960938 C 339.308594 183.332031 337.355469 187.398438 339.671875 192.925781 C 341.949219 198.371094 338.453125 201.664062 334.347656 204.019531 C 325.6875 209.019531 316.011719 210.96875 306.175781 212.597656 Z M 306.214844 212.636719 " fill-opacity="1" fill-rule="nonzero"/><path fill="#c0da86" d="M 197.46875 163.582031 C 192.101562 163.417969 186.9375 164.476562 181.777344 165.777344 C 181.085938 165.9375 180.394531 166.304688 179.703125 166.46875 C 176.125 167.320312 164.621094 155.128906 165.839844 151.632812 C 167.304688 147.40625 168.320312 142.976562 167.304688 138.710938 C 166.207031 134.074219 168.441406 132.289062 171.855469 130.335938 C 183.160156 123.996094 194.90625 120.21875 208.039062 122.535156 C 212.996094 123.429688 217.511719 125.257812 221.574219 128.140625 C 229.503906 133.792969 230.761719 142.976562 224.789062 150.578125 C 219.136719 157.769531 206.695312 163.621094 197.46875 163.5 Z M 197.46875 163.582031 " fill-opacity="1" fill-rule="nonzero"/><path fill="#bfd986" d="M 216.980469 221.050781 C 211.207031 222.917969 207.875 219.953125 205.109375 213.855469 C 201.453125 205.769531 194.257812 200.6875 186.371094 196.910156 C 183.441406 195.527344 182.425781 193.859375 182.832031 190.648438 C 183.484375 185.164062 182.832031 179.675781 180.351562 174.636719 C 179.335938 172.5625 180.027344 171.914062 181.859375 171.101562 C 199.378906 163.214844 229.300781 174.230469 237.511719 191.542969 C 238.894531 194.46875 239.136719 196.867188 236.578125 199.386719 C 234.707031 201.214844 234.300781 203.816406 234.707031 206.539062 C 235.886719 214.710938 230.558594 220.847656 222.265625 221.089844 C 220.804688 221.089844 219.339844 221.089844 216.941406 221.089844 Z M 216.980469 221.050781 " fill-opacity="1" fill-rule="nonzero"/><path fill="#d7d8d8" d="M 103.722656 324.484375 C 131.285156 333.667969 159.296875 338.097656 187.875 338.667969 C 216.492188 339.234375 244.746094 336.675781 272.636719 328.222656 C 272.066406 333.707031 269.832031 337.324219 264.058594 339.113281 C 236.25 347.769531 207.792969 349.679688 178.972656 348.175781 C 160.148438 347.203125 141.488281 344.886719 123.234375 339.96875 C 120.066406 339.113281 117.054688 337.609375 113.886719 336.917969 C 107.339844 335.496094 104.941406 330.90625 103.761719 324.484375 Z M 103.722656 324.484375 " fill-opacity="1" fill-rule="nonzero"/><path fill="#e35b36" d="M 260.847656 194.386719 C 259.464844 193.941406 259.789062 193.128906 259.75 192.476562 C 258.855469 183.007812 252.1875 179.105469 244.21875 184.105469 C 240.601562 186.382812 239.382812 185.203125 237.550781 182.519531 C 234.179688 177.523438 234.707031 170.328125 238.8125 167.117188 C 243.445312 163.460938 249.21875 164.3125 253.691406 169.433594 C 254.625 170.492188 255.277344 171.546875 256.742188 170.695312 C 258.367188 169.71875 258.042969 168.253906 257.308594 166.875 C 254.707031 162.039062 250.4375 160.046875 245.113281 159.964844 C 249.625 149.84375 271.292969 144.441406 281.296875 154.113281 C 276.863281 156.632812 272.3125 159.03125 270.523438 164.230469 C 269.832031 166.304688 268.570312 168.785156 271.292969 169.960938 C 274.464844 171.34375 274.058594 167.929688 274.789062 166.46875 C 278.367188 159.152344 284.953125 156.957031 290.890625 161.144531 C 293.207031 162.769531 294.019531 164.433594 292.472656 167.078125 C 291.253906 169.109375 290.402344 171.34375 289.34375 173.457031 C 288.410156 175.367188 287.191406 175.9375 284.953125 175.207031 C 275.195312 172.035156 269.097656 174.675781 264.75 184.023438 C 263.164062 187.398438 262.105469 190.972656 260.847656 194.46875 Z M 260.847656 194.386719 " fill-opacity="1" fill-rule="nonzero"/><path fill="#5d9942" d="M 155.269531 195.203125 C 172.101562 196.175781 186.816406 198.980469 197.550781 211.621094 C 199.746094 214.179688 203.445312 217.148438 201.777344 220.316406 C 200.597656 222.59375 196.085938 220.96875 193.078125 220.847656 C 179.945312 220.277344 166.816406 219.75 153.644531 219.140625 C 151.449219 219.058594 149.214844 218.894531 147.140625 218.367188 C 142.953125 217.269531 141.203125 212.800781 143.523438 209.261719 C 145.027344 206.988281 146 204.46875 145.027344 202.027344 C 143.238281 197.679688 145.351562 196.542969 149.007812 196.09375 C 151.53125 195.769531 154.050781 195.40625 155.230469 195.203125 Z M 155.269531 195.203125 " fill-opacity="1" fill-rule="nonzero"/><path fill="#e05434" d="M 268.570312 134.96875 C 278.691406 135.660156 289.546875 138.789062 297.800781 147.894531 C 300.726562 151.105469 299.996094 155.699219 296.621094 158.136719 C 295.5625 158.90625 295.035156 158.339844 294.304688 157.769531 C 291.296875 155.414062 287.960938 153.625 285.035156 151.0625 C 271.621094 139.320312 247.429688 143.75 238.773438 159.316406 C 236.089844 164.109375 230.601562 167.28125 230.480469 173.660156 C 230.480469 174.757812 229.015625 174.554688 228.324219 173.90625 C 226.820312 172.523438 223.933594 172.320312 224.175781 169.394531 C 224.257812 168.296875 224.542969 167.238281 224.867188 166.183594 C 230.234375 148.300781 248.203125 134.890625 268.570312 134.96875 Z M 268.570312 134.96875 " fill-opacity="1" fill-rule="nonzero"/><path fill="#e35937" d="M 144.414062 166.957031 C 154.90625 169.433594 162.585938 177.398438 163.890625 186.625 C 164.296875 189.511719 163.890625 190.972656 160.351562 190.691406 C 153.765625 190.160156 147.222656 190.851562 140.917969 193.046875 C 137.667969 194.183594 135.269531 193.25 134.089844 189.714844 C 133.03125 186.542969 131.40625 183.089844 128.03125 182.398438 C 118.925781 180.53125 123.925781 173.78125 123.886719 169.597656 C 123.84375 165.167969 129.089844 164.679688 132.789062 164.3125 C 138.074219 163.785156 140.796875 168.09375 138.398438 172.929688 C 137.503906 174.71875 136.285156 176.34375 135.1875 178.011719 C 134.375 179.269531 134.496094 180.488281 135.636719 181.382812 C 136.9375 182.398438 138.074219 181.75 138.96875 180.734375 C 142.300781 176.914062 144.578125 172.644531 144.457031 166.957031 Z M 144.414062 166.957031 " fill-opacity="1" fill-rule="nonzero"/><path fill="#df5536" d="M 114.984375 158.746094 C 134.375 147.082031 155.230469 149.84375 169.132812 165.328125 C 175.109375 171.953125 178.117188 179.839844 178.117188 188.78125 C 178.117188 190.285156 179.175781 193.25 176.164062 192.722656 C 173.726562 192.273438 169.988281 193.496094 169.132812 189.390625 C 168.5625 186.707031 168.28125 183.945312 167.34375 181.421875 C 163.277344 170.734375 155.839844 164.558594 144.375 161.792969 C 136.773438 159.964844 130.105469 158.867188 122.828125 162.484375 C 119.496094 164.152344 118.152344 159.113281 114.984375 158.746094 Z M 114.984375 158.746094 " fill-opacity="1" fill-rule="nonzero"/><path fill="#dd5534" d="M 233.363281 142.570312 C 234.054688 132.207031 228.648438 126.273438 220.882812 121.273438 C 212.671875 115.949219 204.785156 110.585938 194.460938 110.746094 C 182.546875 110.949219 172.792969 115.378906 165.839844 125.175781 C 164.5 127.085938 163.847656 127.492188 161.734375 126.152344 C 159.214844 124.523438 159.824219 123.265625 161.125 121.355469 C 171.410156 105.992188 195.394531 100.140625 213.242188 108.796875 C 224.625 114.285156 232.105469 123.429688 237.429688 134.605469 C 239.382812 138.710938 238.242188 141.027344 233.324219 142.609375 Z M 233.363281 142.570312 " fill-opacity="1" fill-rule="nonzero"/><path fill="#f2bf1e" d="M 234.949219 220.480469 C 239.625 216.214844 242.550781 212.109375 239.746094 206.214844 C 239.054688 204.753906 239.828125 202.964844 240.96875 201.664062 C 243.367188 198.941406 244.585938 196.015625 244.015625 192.195312 C 243.445312 188.210938 246.78125 187.601562 249.789062 187.195312 C 253.042969 186.746094 254.75 188.617188 254.828125 191.542969 C 254.910156 195.039062 255.722656 197.761719 258.488281 200.199219 C 260.765625 202.230469 258.773438 205.035156 258.488281 207.476562 C 256.984375 219.992188 256.902344 219.992188 244.339844 220.480469 C 241.617188 220.601562 238.894531 220.480469 234.949219 220.480469 Z M 234.949219 220.480469 " fill-opacity="1" fill-rule="nonzero"/><path fill="#f4be1c" d="M 138.5625 217.433594 C 138.074219 217.675781 137.910156 217.796875 137.75 217.796875 C 131.933594 217.148438 126.164062 216.539062 120.308594 215.886719 C 119.738281 213.613281 121.324219 212.027344 121.8125 210.199219 C 123.15625 205.078125 123.195312 200.078125 120.066406 195.484375 C 117.667969 191.910156 118.804688 187.96875 121.691406 186.382812 C 124.863281 184.632812 127.992188 187.195312 129.007812 190.769531 C 130.105469 194.589844 132.21875 196.828125 136.121094 198.207031 C 140.636719 199.792969 141.203125 203.289062 138.441406 207.230469 C 135.839844 210.929688 135.839844 211.539062 138.601562 217.433594 Z M 138.5625 217.433594 " fill-opacity="1" fill-rule="nonzero"/><path fill="#f0bd1d" d="M 155.066406 121.597656 C 154.824219 115.460938 154.863281 108.960938 157.507812 106.519531 C 162.058594 102.375 166.003906 96.847656 172.140625 94.53125 C 178.28125 92.214844 185.027344 94.367188 188.890625 99.976562 C 174.824219 102.253906 163.644531 108.960938 155.066406 121.558594 Z M 155.066406 121.597656 " fill-opacity="1" fill-rule="nonzero"/><path fill="#7fae4a" d="M 85.101562 118.589844 C 89.617188 123.507812 96.078125 126.515625 97.910156 133.667969 C 98.882812 137.53125 99.210938 140.335938 94.046875 140.417969 C 93.03125 140.417969 91.972656 140.984375 90.429688 141.433594 C 89.738281 133.464844 87.542969 126.027344 85.144531 118.550781 Z M 85.101562 118.589844 " fill-opacity="1" fill-rule="nonzero"/><path fill="#c5bca2" d="M 197.183594 116.152344 C 189.621094 117.617188 182.222656 119.648438 175.070312 122.535156 C 181.289062 116.316406 188.972656 115.300781 197.183594 116.152344 Z M 197.183594 116.152344 " fill-opacity="1" fill-rule="nonzero"/><path fill="#a09e9c" d="M 33.351562 192.964844 C 33.351562 192.558594 33.351562 192.152344 33.390625 191.746094 C 38.148438 193.738281 43.839844 194.0625 48.027344 199.835938 C 41.441406 198.980469 37.703125 195.363281 33.351562 192.964844 Z M 33.351562 192.964844 " fill-opacity="1" fill-rule="nonzero"/><path fill="#608a3f" d="M 220.761719 161.183594 C 219.988281 169.273438 219.503906 169.597656 212.714844 165.9375 C 214.988281 163.664062 217.875 162.6875 220.761719 161.183594 Z M 220.761719 161.183594 " fill-opacity="1" fill-rule="nonzero"/><path fill="#0b0b0b" d="M 190.394531 250.351562 C 146.082031 248.96875 102.054688 245.3125 59.125 233.484375 C 54.042969 232.105469 49.085938 230.152344 44.125 228.363281 C 42.621094 227.835938 40.75 227.105469 41.480469 224.910156 C 42.253906 222.59375 44.085938 223.449219 45.628906 223.933594 C 99.738281 242.347656 155.878906 245.230469 212.347656 245.597656 C 214.785156 245.597656 219.097656 243.929688 219.136719 247.671875 C 219.21875 251.246094 214.867188 249.863281 212.386719 250.027344 C 207.996094 250.351562 203.605469 250.269531 199.214844 250.3125 C 196.289062 250.3125 193.363281 250.3125 190.433594 250.3125 Z M 190.394531 250.351562 " fill-opacity="1" fill-rule="nonzero"/><path fill="#0c0c0c" d="M 250.316406 249.132812 C 248.039062 248.199219 243.488281 251.285156 243.242188 247.222656 C 243 243.320312 247.714844 244.785156 250.277344 244.539062 C 275.320312 242.304688 300.441406 240.4375 324.632812 232.714844 C 326.378906 232.144531 328.898438 230.925781 329.753906 233.6875 C 330.605469 236.492188 327.800781 236.777344 326.011719 237.304688 C 306.582031 243.441406 286.5 245.71875 266.335938 247.710938 C 261.089844 248.238281 255.804688 248.644531 250.316406 249.09375 Z M 250.316406 249.132812 " fill-opacity="1" fill-rule="nonzero"/><path fill="#0a0b0b" d="M 189.988281 135.335938 C 190.679688 135.335938 191.085938 135.214844 191.371094 135.335938 C 195.882812 137.855469 200.558594 137.855469 205.476562 136.800781 C 207.46875 136.351562 209.339844 137.570312 210.355469 139.5625 C 210.882812 140.578125 211.289062 141.554688 210.355469 142.570312 C 209.460938 143.546875 208.484375 143.546875 207.507812 142.691406 C 207.226562 142.449219 206.941406 142 206.695312 142.042969 C 200.558594 142.773438 194.582031 142 188.605469 140.335938 C 186.9375 139.847656 185.515625 141.917969 184.539062 143.546875 C 183.769531 144.804688 182.589844 145.332031 181.289062 144.5625 C 179.742188 143.625 179.90625 141.960938 180.636719 140.699219 C 182.75 137.042969 186.246094 135.78125 189.90625 135.417969 Z M 189.988281 135.335938 " fill-opacity="1" fill-rule="nonzero"/><path fill="#2f3922" d="M 192.386719 152.082031 C 190.71875 151.917969 189.621094 151.023438 189.539062 149.398438 C 189.460938 148.21875 190.355469 147.285156 191.53125 147.164062 C 193.160156 147 194.417969 147.894531 194.664062 149.519531 C 194.90625 150.984375 193.6875 151.714844 192.386719 152.121094 Z M 192.386719 152.082031 " fill-opacity="1" fill-rule="nonzero"/><path fill="#111411" d="M 207.632812 187.5625 C 211.085938 188.046875 214.582031 188.941406 217.0625 192.03125 C 219.054688 194.511719 219.664062 197.191406 218.121094 200.160156 C 216.535156 203.207031 213.890625 204.589844 210.640625 204.957031 C 209.257812 205.117188 207.996094 204.671875 207.710938 203.167969 C 207.429688 201.703125 208.199219 200.890625 209.746094 200.484375 C 211.777344 199.957031 214.707031 199.835938 214.296875 196.867188 C 213.890625 193.941406 211.207031 193.089844 208.566406 192.679688 C 208.039062 192.601562 207.46875 192.558594 206.941406 192.398438 C 205.476562 191.949219 203.242188 192.273438 203.605469 189.753906 C 203.890625 187.640625 205.722656 187.5625 207.671875 187.5625 Z M 207.632812 187.5625 " fill-opacity="1" fill-rule="nonzero"/></svg>